<?xml version="1.0" encoding="UTF-8" standalone="no"?>
<!-- Generator: Adobe Illustrator 16.0.0, SVG Export Plug-In . SVG Version: 6.00 Build 0)  -->

<svg
   xmlns:dc="http://purl.org/dc/elements/1.1/"
   xmlns:cc="http://creativecommons.org/ns#"
   xmlns:rdf="http://www.w3.org/1999/02/22-rdf-syntax-ns#"
   xmlns:svg="http://www.w3.org/2000/svg"
   xmlns="http://www.w3.org/2000/svg"
   xmlns:sodipodi="http://sodipodi.sourceforge.net/DTD/sodipodi-0.dtd"
   xmlns:inkscape="http://www.inkscape.org/namespaces/inkscape"
   version="1.1"
   id="Layer_1"
   x="0px"
   y="0px"
   width="64"
   height="64"
   viewBox="0 0 64 64"
   enable-background="new 0 0 50 50"
   xml:space="preserve"
   inkscape:version="0.48.4 r9939"
   sodipodi:docname="document62-2-green.svg"><metadata
     id="metadata25"><rdf:RDF><cc:Work
         rdf:about=""><dc:format>image/svg+xml</dc:format><dc:type
           rdf:resource="http://purl.org/dc/dcmitype/StillImage" /><dc:title /></cc:Work></rdf:RDF></metadata><defs
     id="defs23" /><sodipodi:namedview
     pagecolor="#ffffff"
     bordercolor="#666666"
     borderopacity="1"
     objecttolerance="10"
     gridtolerance="10"
     guidetolerance="10"
     inkscape:pageopacity="0"
     inkscape:pageshadow="2"
     inkscape:window-width="1244"
     inkscape:window-height="689"
     id="namedview21"
     showgrid="false"
     inkscape:zoom="4.72"
     inkscape:cx="9.1101695"
     inkscape:cy="25"
     inkscape:window-x="0"
     inkscape:window-y="0"
     inkscape:window-maximized="0"
     inkscape:current-layer="g3" /><g
     id="g3"
     transform="matrix(1.8110989,0,0,1.8110989,-15.510525,-6.384974)"><path
       d="m 41.569099,21.469927 c 0.04015,-1.020021 -0.131301,-2.057403 -0.512181,-3.043785 l 1.581032,-0.983126 -1.549563,-2.482774 -1.579947,0.989637 c -0.72161,-0.775867 -1.574521,-1.379198 -2.505561,-1.795887 l 0.415604,-1.812165 -2.849547,-0.654332 -0.414519,1.81325 c -0.34073,-0.01411 -0.683631,0.0054 -1.024361,0.03906 V 9.7440261 c 0,-1.5777758 -1.283707,-2.861483 -2.863654,-2.861483 H 11.948351 c -1.579947,0 -2.8636539,1.2837072 -2.8636539,2.861483 V 32.644575 c 0,1.577776 1.2837069,2.861483 2.8636539,2.861483 h 18.318051 c 1.579947,0 2.863654,-1.283707 2.863654,-2.861483 v -1.955402 l 0.05209,0.01194 0.417774,-1.81325 c 1.017851,0.04015 2.053063,-0.12696 3.041615,-0.513265 l 0.986382,1.582117 2.477348,-1.549564 -0.985297,-1.579946 c 0.775867,-0.71727 1.381369,-1.577777 1.792632,-2.508817 l 1.812164,0.418859 0.656503,-2.849547 -1.812164,-0.417774 z m -9.583854,11.174652 c 0,0.946231 -0.771526,1.716673 -1.718843,1.716673 H 11.948351 c -0.947317,0 -1.718844,-0.770442 -1.718844,-1.716673 V 9.7440301 c 0,-0.9462319 0.771527,-1.7166728 1.718844,-1.7166728 h 18.318051 c 0.947317,0 1.718843,0.7704409 1.718843,1.7166728 V 32.644579 z m 4.669308,-6.997993 c -1.094895,0.684716 -2.340622,0.891975 -3.525582,0.720525 v -10.36189 c 1.99338,-0.284304 4.061635,0.59031 5.197764,2.408985 1.536542,2.455645 0.785633,5.698008 -1.672182,7.23238 z"
       id="path5"
       inkscape:connector-curvature="0"
       style="fill:#00913a;fill-opacity:1" /><path
       d="M 26.654,16.371 H 13.898 c -0.269,0 -0.484,0.217 -0.484,0.485 0,0.268 0.216,0.484 0.484,0.484 h 12.756 c 0.269,0 0.484,-0.216 0.484,-0.484 0,-0.268 -0.215,-0.485 -0.484,-0.485 z"
       id="path7"
       inkscape:connector-curvature="0"
       style="fill:#00913a;fill-opacity:1" /><path
       d="M 26.654,19.086 H 13.898 c -0.269,0 -0.484,0.217 -0.484,0.485 0,0.268 0.216,0.483 0.484,0.483 h 12.756 c 0.269,0 0.484,-0.215 0.484,-0.483 0,-0.268 -0.215,-0.485 -0.484,-0.485 z"
       id="path9"
       inkscape:connector-curvature="0"
       style="fill:#00913a;fill-opacity:1" /><path
       d="M 26.654,21.8 H 13.898 c -0.269,0 -0.484,0.218 -0.484,0.485 0,0.269 0.216,0.484 0.484,0.484 h 12.756 c 0.269,0 0.484,-0.216 0.484,-0.484 C 27.139,22.018 26.923,21.8 26.654,21.8 z"
       id="path11"
       inkscape:connector-curvature="0"
       style="fill:#00913a;fill-opacity:1" /><path
       d="M 26.654,24.515 H 13.898 c -0.269,0 -0.484,0.217 -0.484,0.485 0,0.268 0.216,0.484 0.484,0.484 h 12.756 c 0.269,0 0.484,-0.217 0.484,-0.484 10e-4,-0.269 -0.215,-0.485 -0.484,-0.485 z"
       id="path13"
       inkscape:connector-curvature="0"
       style="fill:#00913a;fill-opacity:1" /><path
       d="M 26.654,27.229 H 13.898 c -0.269,0 -0.484,0.217 -0.484,0.485 0,0.267 0.216,0.483 0.484,0.483 h 12.756 c 0.269,0 0.484,-0.217 0.484,-0.483 10e-4,-0.268 -0.215,-0.485 -0.484,-0.485 z"
       id="path15"
       inkscape:connector-curvature="0"
       style="fill:#00913a;fill-opacity:1" /><path
       d="M 26.654,29.943 H 13.898 c -0.269,0 -0.484,0.217 -0.484,0.485 0,0.268 0.216,0.484 0.484,0.484 h 12.756 c 0.269,0 0.484,-0.217 0.484,-0.484 10e-4,-0.268 -0.215,-0.485 -0.484,-0.485 z"
       id="path17"
       inkscape:connector-curvature="0"
       style="fill:#00913a;fill-opacity:1" /><path
       d="m 20.129,32.658 h -6.23 c -0.269,0 -0.484,0.217 -0.484,0.485 0,0.267 0.216,0.484 0.484,0.484 h 6.23 c 0.267,0 0.482,-0.218 0.482,-0.484 0,-0.268 -0.215,-0.485 -0.482,-0.485 z"
       id="path19"
       inkscape:connector-curvature="0"
       style="fill:#00913a;fill-opacity:1" /></g></svg>