<?xml version="1.0" encoding="UTF-8" standalone="no"?>
<!-- Generator: Adobe Illustrator 16.0.0, SVG Export Plug-In . SVG Version: 6.00 Build 0)  -->

<svg
   xmlns:dc="http://purl.org/dc/elements/1.1/"
   xmlns:cc="http://creativecommons.org/ns#"
   xmlns:rdf="http://www.w3.org/1999/02/22-rdf-syntax-ns#"
   xmlns:svg="http://www.w3.org/2000/svg"
   xmlns="http://www.w3.org/2000/svg"
   xmlns:sodipodi="http://sodipodi.sourceforge.net/DTD/sodipodi-0.dtd"
   xmlns:inkscape="http://www.inkscape.org/namespaces/inkscape"
   version="1.1"
   x="0px"
   y="0px"
   width="50px"
   height="50px"
   viewBox="0 0 50 50"
   enable-background="new 0 0 50 50"
   xml:space="preserve"
   id="svg2"
   inkscape:version="0.48.4 r9939"
   sodipodi:docname="list41.svg"><metadata
     id="metadata219"><rdf:RDF><cc:Work
         rdf:about=""><dc:format>image/svg+xml</dc:format><dc:type
           rdf:resource="http://purl.org/dc/dcmitype/StillImage" /><dc:title></dc:title></cc:Work></rdf:RDF></metadata><defs
     id="defs217" /><sodipodi:namedview
     pagecolor="#ffffff"
     bordercolor="#666666"
     borderopacity="1"
     objecttolerance="10"
     gridtolerance="10"
     guidetolerance="10"
     inkscape:pageopacity="0"
     inkscape:pageshadow="2"
     inkscape:window-width="914"
     inkscape:window-height="682"
     id="namedview215"
     showgrid="false"
     inkscape:zoom="4.72"
     inkscape:cx="-8.8983051"
     inkscape:cy="25"
     inkscape:window-x="0"
     inkscape:window-y="0"
     inkscape:window-maximized="0"
     inkscape:current-layer="g59" /><g
     id="text" /><g
     id="_x31_" /><g
     id="_x32_" /><g
     id="_x33__1_" /><g
     id="_x34_" /><g
     id="_x35_" /><g
     id="_x36_" /><g
     id="_x37_" /><g
     id="_x38_" /><g
     id="_x39_" /><g
     id="_x31_0" /><g
     id="_x31_1" /><g
     id="_x31_2" /><g
     id="_x31_3" /><g
     id="_x31_4" /><g
     id="_x31_5" /><g
     id="_x31_6" /><g
     id="_x31_7" /><g
     id="_x31_8" /><g
     id="_x31_9" /><g
     id="_x32_0" /><g
     id="_x32_1" /><g
     id="_x32_2" /><g
     id="_x32_3" /><g
     id="_x32_4" /><g
     id="_x32_5" /><g
     id="_x32_6" /><g
     id="_x32_7" /><g
     id="_x32_8" /><g
     id="_x32_9" /><g
     id="_x33_0" /><g
     id="_x33_1" /><g
     id="_x33_2" /><g
     id="_x33_3" /><g
     id="_x33_4" /><g
     id="_x33_5" /><g
     id="_x33_6" /><g
     id="_x33_7" /><g
     id="_x33_8" /><g
     id="_x33_9" /><g
     id="_x34_0" /><g
     id="_x34_1" /><g
     id="_x34_2" /><g
     id="_x34_3" /><g
     id="_x34_4" /><g
     id="_x34_5" /><g
     id="_x34_6" /><g
     id="_x34_7" /><g
     id="_x34_8" /><g
     id="_x34_9" /><g
     id="_x35_0" /><g
     id="_x35_1" /><g
     id="_x35_2" /><g
     id="_x35_3" /><g
     id="_x35_4"><g
       id="g59"><path
         id="path3221"
         d="m 21.671728,14.683864 c 6.418,0 5.835,0 12.253,0 1.612,0 1.612,-2.5 0,-2.5 -6.418,0 -5.835,0 -12.253,0 -1.612,0 -1.612,2.5 0,2.5 z"
         inkscape:connector-curvature="0" /><path
         id="path3223"
         d="m 33.924728,20.100864 c -6.418,0 -5.835,0 -12.253,0 -1.612,0 -1.612,2.5 0,2.5 6.418,0 5.835,0 12.253,0 1.613,0 1.613,-2.5 0,-2.5 z"
         inkscape:connector-curvature="0" /><path
         id="path3225"
         d="m 33.924728,27.583864 c -6.418,0 -5.835,0 -12.253,0 -1.612,0 -1.612,2.5 0,2.5 6.418,0 5.835,0 12.253,0 1.613,0 1.613,-2.5 0,-2.5 z"
         inkscape:connector-curvature="0" /><path
         id="path3227"
         d="m 33.924728,35.500864 c -6.418,0 -5.835,0 -12.253,0 -1.612,0 -1.612,2.5 0,2.5 6.418,0 5.835,0 12.253,0 1.613,0 1.613,-2.5 0,-2.5 z"
         inkscape:connector-curvature="0" /><path
         id="path3229"
         d="m 17.097728,11.555864 h -3.484 c -0.126,0 -0.229,0.077 -0.229,0.172 v 3.513 c 0,0.094 0.102,0.171 0.229,0.171 h 3.484 c 0.126,0 0.229,-0.077 0.229,-0.171 v -3.513 c 0,-0.095 -0.102,-0.172 -0.229,-0.172 z"
         inkscape:connector-curvature="0" /><path
         id="path3231"
         d="m 16.884728,19.356864 h -3.484 c -0.126,0 -0.229,0.077 -0.229,0.172 v 3.513 c 0,0.094 0.102,0.171 0.229,0.171 h 3.484 c 0.126,0 0.229,-0.077 0.229,-0.171 v -3.513 c 0,-0.095 -0.102,-0.172 -0.229,-0.172 z"
         inkscape:connector-curvature="0" /><path
         id="path3233"
         d="m 16.884728,26.944864 h -3.484 c -0.126,0 -0.229,0.077 -0.229,0.172 v 3.513 c 0,0.094 0.102,0.171 0.229,0.171 h 3.484 c 0.126,0 0.229,-0.077 0.229,-0.171 v -3.513 c 0,-0.094 -0.102,-0.172 -0.229,-0.172 z"
         inkscape:connector-curvature="0" /><path
         id="path3235"
         d="m 16.884728,34.822864 h -3.484 c -0.126,0 -0.229,0.077 -0.229,0.172 v 3.513 c 0,0.094 0.102,0.171 0.229,0.171 h 3.484 c 0.126,0 0.229,-0.077 0.229,-0.171 v -3.513 c 0,-0.095 -0.102,-0.172 -0.229,-0.172 z"
         inkscape:connector-curvature="0" /></g></g><g
     id="_x35_5" /><g
     id="_x35_6" /><g
     id="_x35_7" /><g
     id="_x35_8" /><g
     id="_x35_9" /><g
     id="_x36_0" /><g
     id="_x36_1" /><g
     id="_x36_2" /><g
     id="_x36_3" /><g
     id="_x36_4" /><g
     id="_x36_5" /><g
     id="_x36_6" /><g
     id="_x36_7" /><g
     id="_x36_8" /><g
     id="_x36_9" /><g
     id="_x37_0" /><g
     id="_x37_1" /><g
     id="_x37_2" /><g
     id="_x37_3" /><g
     id="_x37_4" /><g
     id="_x37_5" /><g
     id="_x37_6" /><g
     id="_x37_7" /><g
     id="_x37_8" /><g
     id="_x37_9" /><g
     id="_x38_0" /><g
     id="_x38_1" /><g
     id="_x38_2" /><g
     id="_x38_3" /><g
     id="_x38_4" /><g
     id="_x38_5" /><g
     id="_x38_6" /><g
     id="_x38_7" /><g
     id="_x38_8" /><g
     id="_x38_9" /><g
     id="_x39_0" /><g
     id="_x39_1" /><g
     id="_x39_2" /><g
     id="_x39_3" /><g
     id="_x39_4" /><g
     id="_x39_5" /><g
     id="_x39_6" /><g
     id="_x39_7" /><g
     id="_x39_8" /><g
     id="_x39_9" /><g
     id="_x31_00" /><g
     id="_x31_01" /><g
     id="_x31_02" /><g
     id="_x31_03" /><g
     id="_x31_04" /><g
     id="_x31_05" /><g
     id="_x31_06" /><g
     id="_x31_07" /><g
     id="_x31_08" /><g
     id="_x31_09" /><g
     id="_x31_10" /><g
     id="_x31_11" /><g
     id="_x31_12" /><g
     id="_x31_13" /><g
     id="_x31_14" /><g
     id="_x31_15" /><g
     id="_x31_16" /><g
     id="_x31_17" /><g
     id="_x31_18" /><g
     id="_x31_19" /><g
     id="_x31_20" /><g
     id="_x31_21" /><g
     id="_x31_22" /><g
     id="_x31_23" /><g
     id="_x31_24" /><g
     id="_x31_25" /><g
     id="_x31_26" /><g
     id="_x31_27" /><g
     id="_x31_28" /><g
     id="_x31_29" /><g
     id="_x31_30" /><g
     id="_x31_31" /><g
     id="_x31_32" /><g
     id="_x31_33" /><g
     id="_x31_34" /><g
     id="_x31_35" /><g
     id="_x31_36" /><g
     id="_x31_37" /><g
     id="_x31_38" /><g
     id="_x31_39" /><g
     id="_x31_40" /><g
     id="_x31_41" /><g
     id="_x31_42" /><g
     id="_x31_43" /><g
     id="_x31_44" /><g
     id="_x31_45" /><g
     id="_x31_46" /><g
     id="_x31_47" /><g
     id="_x31_48" /><g
     id="_x31_49" /><g
     id="_x31_50" /><g
     id="_x31_51" /><g
     id="_x31_52" /><g
     id="_x31_53" /><g
     id="_x31_54" /><g
     id="_x31_55" /><g
     id="_x31_56" /><g
     id="_x31_57" /><g
     id="_x31_58" /><g
     id="_x31_59" /><g
     id="_x31_60" /><g
     id="_x31_61" /><g
     id="_x31_62" /><g
     id="_x31_63" /><g
     id="_x31_64" /><g
     id="_x31_65" /><g
     id="_x31_66" /><g
     id="_x31_67" /><g
     id="_x31_68" /><g
     id="_x31_69" /><g
     id="_x31_70" /><g
     id="_x31_71" /><g
     id="_x31_72" /><g
     id="_x31_73" /><g
     id="_x31_74" /><g
     id="_x31_75" /><g
     id="_x31_76" /><g
     id="_x31_77" /><g
     id="_x31_78" /><g
     id="_x31_79" /><g
     id="_x31_80" /><g
     id="_x31_81" /><g
     id="_x31_82" /><g
     id="_x31_83" /><g
     id="_x31_84" /><g
     id="_x31_85" /><g
     id="_x31_86" /><g
     id="_x31_87" /><g
     id="_x31_88" /><g
     id="_x31_89" /><g
     id="_x31_90" /><path
     d="m 43.141389,6.8966585 c 0,-2.5108785 -2.042895,-4.5537715 -4.557224,-4.5537715 l -29.151382,0 c -2.514329,0 -4.557222,2.042893 -4.557222,4.5537715 l 0,36.4439735 c 0,2.510876 2.042893,4.553769 4.557222,4.553769 l 29.151382,0 c 2.514329,0 4.557224,-2.042893 4.557224,-4.553769 -0.0069,-38.958362 0,-22.064943 0,-36.4439735 z M 41.319536,43.340632 c 0,1.505835 -1.227809,2.731916 -2.735371,2.731916 l -29.151382,0 c -1.507562,0 -2.73537,-1.226081 -2.73537,-2.731916 l 0,-36.4439735 c 0,-1.5058365 1.227808,-2.7319185 2.73537,-2.7319185 l 29.151382,0 c 1.507562,0 2.735371,1.226082 2.735371,2.7319185 z"
     id="path5"
     inkscape:connector-curvature="0"
     sodipodi:nodetypes="cssssssccsssssssss" /></svg>