<?xml version="1.0" encoding="UTF-8" standalone="no"?>
<!-- Generator: Adobe Illustrator 16.0.4, SVG Export Plug-In . SVG Version: 6.00 Build 0)  -->

<svg
   xmlns:dc="http://purl.org/dc/elements/1.1/"
   xmlns:cc="http://creativecommons.org/ns#"
   xmlns:rdf="http://www.w3.org/1999/02/22-rdf-syntax-ns#"
   xmlns:svg="http://www.w3.org/2000/svg"
   xmlns="http://www.w3.org/2000/svg"
   xmlns:sodipodi="http://sodipodi.sourceforge.net/DTD/sodipodi-0.dtd"
   xmlns:inkscape="http://www.inkscape.org/namespaces/inkscape"
   version="1.1"
   id="Capa_1"
   x="0px"
   y="0px"
   width="216px"
   height="146px"
   viewBox="0 0 216 146"
   enable-background="new 0 0 216 146"
   xml:space="preserve"
   inkscape:version="0.48.4 r9939"
   sodipodi:docname="text59-many-grey.svg"><metadata
     id="metadata15"><rdf:RDF><cc:Work
         rdf:about=""><dc:format>image/svg+xml</dc:format><dc:type
           rdf:resource="http://purl.org/dc/dcmitype/StillImage" /><dc:title></dc:title></cc:Work></rdf:RDF></metadata><defs
     id="defs13" /><sodipodi:namedview
     pagecolor="#ffffff"
     bordercolor="#666666"
     borderopacity="1"
     objecttolerance="10"
     gridtolerance="10"
     guidetolerance="10"
     inkscape:pageopacity="0"
     inkscape:pageshadow="2"
     inkscape:window-width="627"
     inkscape:window-height="624"
     id="namedview11"
     showgrid="false"
     inkscape:zoom="1"
     inkscape:cx="153.62712"
     inkscape:cy="92.100244"
     inkscape:window-x="419"
     inkscape:window-y="18"
     inkscape:window-maximized="0"
     inkscape:current-layer="Capa_1" /><g
     transform="translate(40,-32.288136)"
     id="g3015"
     inkscape:export-filename="/home/vyacheslav/Dropbox/Projects/Relanotes/relanotes-0.01/g3-many.png"
     inkscape:export-xdpi="7.4318676"
     inkscape:export-ydpi="7.4318676"><g
       transform="translate(118,0)"
       id="g3017"
       inkscape:export-xdpi="8.6301966"
       inkscape:export-ydpi="8.6301966"
       style="fill:#ffffff"><path
         sodipodi:nodetypes="ssccsscssssssscscccc"
         inkscape:connector-curvature="0"
         d="m 91.081797,44.486779 c -1.086,-2.607 -2.389,-4.67 -3.91,-6.191 l -25.42,-25.42 c -1.521,-1.52 -3.584,-2.824 -6.191,-3.9109995 -2.607,-1.086 -4.997,-1.629 -7.169,-1.629 l -52.1450003,0 c -2.172,0 -4.019,0.76 -5.54,2.281 -1.5209997,1.5199995 -2.2809997,3.3669995 -2.2809997,5.5399995 l 0,109.500001 c 0,2.173 0.76,4.02 2.2809997,5.54 1.521,1.52 3.368,2.281 5.54,2.281 l 88.6440003,0 c 2.172,0 4.018,-0.761 5.538,-2.281 1.521,-1.521 2.281,-3.367 2.281,-5.54 l 0,-73.000001 c 0.001,-2.173 -0.542,-4.563 -1.628,-7.17 z m -8.799,77.563001 -83.4290003,0 0,-104.285001 C -20.835531,160.34139 -1.4100773,123.96202 82.282797,122.04978 z"
         id="path3019"
         style="fill:#ffffff" /></g><g
       transform="translate(50.440678,-3.0932207)"
       style="fill:#b3b3b3"
       inkscape:export-ydpi="8.6301966"
       inkscape:export-xdpi="8.6301966"
       id="g3021"><path
         inkscape:connector-curvature="0"
         style="fill:#b3b3b3"
         id="path3023"
         d="m 158.514,47.58 c -1.086,-2.607 -2.389,-4.67 -3.91,-6.191 l -25.42,-25.42 c -1.521,-1.52 -3.584,-2.824 -6.191,-3.911 -2.607,-1.086 -4.997,-1.629 -7.169,-1.629 H 63.679 c -2.172,0 -4.019,0.76 -5.54,2.281 -1.521,1.52 -2.281,3.367 -2.281,5.54 v 109.5 c 0,2.173 0.76,4.02 2.281,5.54 1.521,1.52 3.368,2.281 5.54,2.281 h 88.644 c 2.172,0 4.018,-0.761 5.538,-2.281 1.521,-1.521 2.281,-3.367 2.281,-5.54 v -73 c 0.001,-2.173 -0.542,-4.563 -1.628,-7.17 z M 118.43,21.509 c 1.574,0.543 2.688,1.141 3.34,1.792 l 25.502,25.502 c 0.65,0.652 1.248,1.765 1.791,3.34 H 118.43 V 21.509 z m 31.285,103.634 H 66.286 V 20.858 H 108 v 33.893 c 0,2.173 0.76,4.019 2.281,5.54 1.521,1.52 3.367,2.281 5.541,2.281 h 33.893 v 62.571 z" /><path
         inkscape:connector-curvature="0"
         style="fill:#b3b3b3"
         id="path3025"
         d="M 136.68,93.857 H 79.322 c -0.76,0 -1.385,0.244 -1.874,0.732 -0.488,0.489 -0.733,1.114 -0.733,1.874 v 5.215 c 0,0.761 0.244,1.386 0.733,1.874 0.489,0.488 1.114,0.732 1.874,0.732 h 57.358 c 0.76,0 1.385,-0.244 1.873,-0.732 0.488,-0.488 0.733,-1.113 0.733,-1.874 v -5.215 c 0,-0.76 -0.245,-1.385 -0.733,-1.874 -0.489,-0.487 -1.114,-0.732 -1.873,-0.732 z" /><path
         inkscape:connector-curvature="0"
         style="fill:#b3b3b3"
         id="path3027"
         d="m 77.448,73.732 c -0.488,0.488 -0.733,1.113 -0.733,1.875 v 5.214 c 0,0.761 0.244,1.385 0.733,1.874 0.489,0.488 1.114,0.732 1.874,0.732 h 57.358 c 0.76,0 1.385,-0.244 1.873,-0.732 0.488,-0.489 0.733,-1.113 0.733,-1.874 v -5.214 c 0,-0.76 -0.245,-1.385 -0.733,-1.875 C 138.064,73.244 137.439,73 136.68,73 H 79.322 c -0.76,0 -1.385,0.244 -1.874,0.732 z" /></g></g><g
     id="g3001"
     transform="translate(20,-16)"
     inkscape:export-filename="/home/vyacheslav/Dropbox/Projects/Relanotes/relanotes-0.01/g3-many.png"
     inkscape:export-xdpi="7.4318676"
     inkscape:export-ydpi="7.4318676"><g
       style="fill:#ffffff"
       inkscape:export-ydpi="8.6301966"
       inkscape:export-xdpi="8.6301966"
       id="g3003"
       transform="translate(118,0)"><path
         style="fill:#ffffff"
         id="path3005"
         d="m 91.081797,44.486779 c -1.086,-2.607 -2.389,-4.67 -3.91,-6.191 l -25.42,-25.42 c -1.521,-1.52 -3.584,-2.824 -6.191,-3.9109995 -2.607,-1.086 -4.997,-1.629 -7.169,-1.629 l -52.1450003,0 c -2.172,0 -4.019,0.76 -5.54,2.281 -1.5209997,1.5199995 -2.2809997,3.3669995 -2.2809997,5.5399995 l 0,109.500001 c 0,2.173 0.76,4.02 2.2809997,5.54 1.521,1.52 3.368,2.281 5.54,2.281 l 88.6440003,0 c 2.172,0 4.018,-0.761 5.538,-2.281 1.521,-1.521 2.281,-3.367 2.281,-5.54 l 0,-73.000001 c 0.001,-2.173 -0.542,-4.563 -1.628,-7.17 z m -8.799,77.563001 -83.4290003,0 0,-104.285001 C -20.835531,160.34139 -1.4100773,123.96202 82.282797,122.04978 z"
         inkscape:connector-curvature="0"
         sodipodi:nodetypes="ssccsscssssssscscccc" /></g><g
       id="g3007"
       inkscape:export-xdpi="8.6301966"
       inkscape:export-ydpi="8.6301966"
       style="fill:#b3b3b3"
       transform="translate(50.440678,-3.0932207)"><path
         d="m 158.514,47.58 c -1.086,-2.607 -2.389,-4.67 -3.91,-6.191 l -25.42,-25.42 c -1.521,-1.52 -3.584,-2.824 -6.191,-3.911 -2.607,-1.086 -4.997,-1.629 -7.169,-1.629 H 63.679 c -2.172,0 -4.019,0.76 -5.54,2.281 -1.521,1.52 -2.281,3.367 -2.281,5.54 v 109.5 c 0,2.173 0.76,4.02 2.281,5.54 1.521,1.52 3.368,2.281 5.54,2.281 h 88.644 c 2.172,0 4.018,-0.761 5.538,-2.281 1.521,-1.521 2.281,-3.367 2.281,-5.54 v -73 c 0.001,-2.173 -0.542,-4.563 -1.628,-7.17 z M 118.43,21.509 c 1.574,0.543 2.688,1.141 3.34,1.792 l 25.502,25.502 c 0.65,0.652 1.248,1.765 1.791,3.34 H 118.43 V 21.509 z m 31.285,103.634 H 66.286 V 20.858 H 108 v 33.893 c 0,2.173 0.76,4.019 2.281,5.54 1.521,1.52 3.367,2.281 5.541,2.281 h 33.893 v 62.571 z"
         id="path3009"
         style="fill:#b3b3b3"
         inkscape:connector-curvature="0" /><path
         d="M 136.68,93.857 H 79.322 c -0.76,0 -1.385,0.244 -1.874,0.732 -0.488,0.489 -0.733,1.114 -0.733,1.874 v 5.215 c 0,0.761 0.244,1.386 0.733,1.874 0.489,0.488 1.114,0.732 1.874,0.732 h 57.358 c 0.76,0 1.385,-0.244 1.873,-0.732 0.488,-0.488 0.733,-1.113 0.733,-1.874 v -5.215 c 0,-0.76 -0.245,-1.385 -0.733,-1.874 -0.489,-0.487 -1.114,-0.732 -1.873,-0.732 z"
         id="path3011"
         style="fill:#b3b3b3"
         inkscape:connector-curvature="0" /><path
         d="m 77.448,73.732 c -0.488,0.488 -0.733,1.113 -0.733,1.875 v 5.214 c 0,0.761 0.244,1.385 0.733,1.874 0.489,0.488 1.114,0.732 1.874,0.732 h 57.358 c 0.76,0 1.385,-0.244 1.873,-0.732 0.488,-0.489 0.733,-1.113 0.733,-1.874 v -5.214 c 0,-0.76 -0.245,-1.385 -0.733,-1.875 C 138.064,73.244 137.439,73 136.68,73 H 79.322 c -0.76,0 -1.385,0.244 -1.874,0.732 z"
         id="path3013"
         style="fill:#b3b3b3"
         inkscape:connector-curvature="0" /></g></g><g
     id="g2993"
     inkscape:export-filename="/home/vyacheslav/Dropbox/Projects/Relanotes/relanotes-0.01/g3-many.png"
     inkscape:export-xdpi="7.4318676"
     inkscape:export-ydpi="7.4318676"><g
       transform="translate(118,0)"
       id="g2985"
       inkscape:export-xdpi="8.6301966"
       inkscape:export-ydpi="8.6301966"
       style="fill:#ffffff"><path
         sodipodi:nodetypes="ssccsscssssssscscccc"
         inkscape:connector-curvature="0"
         d="m 91.081797,44.486779 c -1.086,-2.607 -2.389,-4.67 -3.91,-6.191 l -25.42,-25.42 c -1.521,-1.52 -3.584,-2.824 -6.191,-3.9109995 -2.607,-1.086 -4.997,-1.629 -7.169,-1.629 l -52.1450003,0 c -2.172,0 -4.019,0.76 -5.54,2.281 -1.5209997,1.5199995 -2.2809997,3.3669995 -2.2809997,5.5399995 l 0,109.500001 c 0,2.173 0.76,4.02 2.2809997,5.54 1.521,1.52 3.368,2.281 5.54,2.281 l 88.6440003,0 c 2.172,0 4.018,-0.761 5.538,-2.281 1.521,-1.521 2.281,-3.367 2.281,-5.54 l 0,-73.000001 c 0.001,-2.173 -0.542,-4.563 -1.628,-7.17 z m -8.799,77.563001 -83.4290003,0 0,-104.285001 C -20.835531,160.34139 -1.4100773,123.96202 82.282797,122.04978 z"
         id="path2987"
         style="fill:#ffffff" /></g><g
       transform="translate(50.440678,-3.0932207)"
       style="fill:#b3b3b3"
       inkscape:export-ydpi="8.6301966"
       inkscape:export-xdpi="8.6301966"
       id="g3"><path
         inkscape:connector-curvature="0"
         style="fill:#b3b3b3"
         id="path5"
         d="m 158.514,47.58 c -1.086,-2.607 -2.389,-4.67 -3.91,-6.191 l -25.42,-25.42 c -1.521,-1.52 -3.584,-2.824 -6.191,-3.911 -2.607,-1.086 -4.997,-1.629 -7.169,-1.629 H 63.679 c -2.172,0 -4.019,0.76 -5.54,2.281 -1.521,1.52 -2.281,3.367 -2.281,5.54 v 109.5 c 0,2.173 0.76,4.02 2.281,5.54 1.521,1.52 3.368,2.281 5.54,2.281 h 88.644 c 2.172,0 4.018,-0.761 5.538,-2.281 1.521,-1.521 2.281,-3.367 2.281,-5.54 v -73 c 0.001,-2.173 -0.542,-4.563 -1.628,-7.17 z M 118.43,21.509 c 1.574,0.543 2.688,1.141 3.34,1.792 l 25.502,25.502 c 0.65,0.652 1.248,1.765 1.791,3.34 H 118.43 V 21.509 z m 31.285,103.634 H 66.286 V 20.858 H 108 v 33.893 c 0,2.173 0.76,4.019 2.281,5.54 1.521,1.52 3.367,2.281 5.541,2.281 h 33.893 v 62.571 z" /><path
         inkscape:connector-curvature="0"
         style="fill:#b3b3b3"
         id="path7"
         d="M 136.68,93.857 H 79.322 c -0.76,0 -1.385,0.244 -1.874,0.732 -0.488,0.489 -0.733,1.114 -0.733,1.874 v 5.215 c 0,0.761 0.244,1.386 0.733,1.874 0.489,0.488 1.114,0.732 1.874,0.732 h 57.358 c 0.76,0 1.385,-0.244 1.873,-0.732 0.488,-0.488 0.733,-1.113 0.733,-1.874 v -5.215 c 0,-0.76 -0.245,-1.385 -0.733,-1.874 -0.489,-0.487 -1.114,-0.732 -1.873,-0.732 z" /><path
         inkscape:connector-curvature="0"
         style="fill:#b3b3b3"
         id="path9"
         d="m 77.448,73.732 c -0.488,0.488 -0.733,1.113 -0.733,1.875 v 5.214 c 0,0.761 0.244,1.385 0.733,1.874 0.489,0.488 1.114,0.732 1.874,0.732 h 57.358 c 0.76,0 1.385,-0.244 1.873,-0.732 0.488,-0.489 0.733,-1.113 0.733,-1.874 v -5.214 c 0,-0.76 -0.245,-1.385 -0.733,-1.875 C 138.064,73.244 137.439,73 136.68,73 H 79.322 c -0.76,0 -1.385,0.244 -1.874,0.732 z" /></g></g></svg>