<?xml version="1.0" encoding="utf-8"?>
<!-- Generator: Adobe Illustrator 15.0.0, SVG Export Plug-In . SVG Version: 6.00 Build 0)  -->
<!DOCTYPE svg PUBLIC "-//W3C//DTD SVG 1.1//EN" "http://www.w3.org/Graphics/SVG/1.1/DTD/svg11.dtd">
<svg version="1.1" id="Layer_1" xmlns="http://www.w3.org/2000/svg" xmlns:xlink="http://www.w3.org/1999/xlink" x="0px" y="0px"
	 width="26px" height="26px" viewBox="0 0 26 26" enable-background="new 0 0 26 26" xml:space="preserve">
<g>
	<path d="M19.956,7.933l-1.901-1.901c-0.736-0.736-1.935-0.736-2.672,0l-6.9,6.902c-0.538,0.537-0.681,1.318-0.434,1.988
		l-1.366,3.909c-0.062,0.195,0.279,0.536,0.475,0.476l3.917-1.363c0.667,0.242,1.445,0.096,1.979-0.438l6.902-6.902
		C20.692,9.868,20.692,8.669,19.956,7.933z M18.495,10.251l-5.162,5.162c-0.312,0.312-0.838,0.292-1.176-0.046L10.62,13.83
		c-0.336-0.337-0.356-0.864-0.045-1.176l5.162-5.162c0.312-0.312,0.838-0.291,1.175,0.045l1.537,1.538
		C18.786,9.413,18.807,9.94,18.495,10.251z"/>
	<rect x="7.55" y="19.765" width="8.108" height="1.096"/>
</g>
</svg>
