<?xml version="1.0" encoding="iso-8859-1"?>
<!-- Generator: Adobe Illustrator 17.0.2, SVG Export Plug-In . SVG Version: 6.00 Build 0)  -->
<!DOCTYPE svg PUBLIC "-//W3C//DTD SVG 1.1//EN" "http://www.w3.org/Graphics/SVG/1.1/DTD/svg11.dtd">
<svg version="1.1" id="Capa_1" xmlns="http://www.w3.org/2000/svg" xmlns:xlink="http://www.w3.org/1999/xlink" x="0px" y="0px"
	 width="100px" height="100px" viewBox="0 0 100 100" style="enable-background:new 0 0 100 100;" xml:space="preserve">
<g>
	<path style="fill:#1E1E1C;" d="M83.188,10.376c-0.807-3.267-3.476-5.372-6.658-6.125c-0.325-0.077-0.653-0.09-0.971-0.056
		c-0.091-0.012-0.175-0.035-0.271-0.039c-16.165-0.727-32.332-0.034-48.502,0c-0.085,0-0.158,0.018-0.238,0.024
		c-0.099-0.008-0.19-0.026-0.295-0.024c-2.253,0.04-4.637,0.654-6.115,2.479c-1.516,1.872-1.893,4.234-1.613,6.581
		c0.043,0.359,0.131,0.703,0.265,1.02c-0.004,3.627-0.04,7.25-0.202,10.873c-0.041,0.197-0.064,0.406-0.062,0.633
		c0.002,0.262-0.001,0.524,0.001,0.786c-0.001,0.004-0.001,0.009-0.001,0.013c0,0.005,0.001,0.009,0.001,0.014
		c0.16,20.522-1.258,41.023-0.801,61.547c0.003,0.137,0.028,0.26,0.047,0.386c-0.019,0.281-0.011,0.568,0.048,0.855
		c0.821,4.013,4.172,6.408,8.167,6.487c0.112,0.002,0.211-0.016,0.316-0.025c0.074,0.006,0.14,0.024,0.217,0.025
		c15.634,0.265,31.267,0.521,46.903,0.533c0.181,0,0.348-0.022,0.51-0.05c0.097,0.017,0.19,0.04,0.289,0.05
		c2.896,0.29,5.634-1.351,6.831-3.985c0.187-0.409,0.284-0.837,0.306-1.259c0.021-0.116,0.051-0.227,0.059-0.353
		c1.802-26.348,1.36-52.762,1.866-79.149c0.002-0.136-0.017-0.257-0.03-0.382C83.271,10.952,83.258,10.663,83.188,10.376z
		 M77.952,11.617c-0.503,26.242-0.074,52.511-1.841,78.714c-0.053,0.084-0.107,0.169-0.122,0.202
		c-0.059,0.065-0.115,0.133-0.179,0.195c-0.033,0.034-0.046,0.05-0.067,0.074c-0.029,0.017-0.055,0.031-0.103,0.062
		c-0.074,0.045-0.153,0.082-0.23,0.123c0.133-0.081-0.175,0.029-0.333,0.079c-0.028,0.002-0.046,0.003-0.082,0.006
		c-0.259,0.015-0.519-0.013-0.774-0.039c-0.189-0.019-0.373-0.008-0.553,0.025c-0.083-0.007-0.159-0.025-0.246-0.025
		c-15.637-0.012-31.27-0.268-46.903-0.533c-0.113-0.002-0.211,0.017-0.315,0.026c-0.074-0.007-0.141-0.024-0.218-0.026
		c-0.838-0.016-1.335-0.136-2.029-0.577c0.059,0.021-0.135-0.152-0.265-0.264c-0.018-0.048-0.303-0.404-0.315-0.424
		c-0.118-0.197-0.235-0.535-0.336-0.95c0.002-0.062,0.015-0.117,0.014-0.182c-0.457-20.532,0.963-41.043,0.801-61.574
		c0.238-4.346,0.266-8.693,0.266-13.045c0-0.526-0.136-0.962-0.349-1.327c-0.01-0.356-0.004-0.712,0.022-1.072
		c0.016,0.063,0.123-0.501,0.125-0.51c0.021-0.061,0.036-0.102,0.049-0.141c0.043-0.081,0.09-0.159,0.137-0.237
		c-0.043,0.088,0.088-0.077,0.193-0.207c-0.019,0.083,0.653-0.382,0.235-0.211c0.695-0.284,1.077-0.281,1.719-0.293
		c0.085-0.002,0.16-0.02,0.241-0.028c0.098,0.009,0.188,0.029,0.292,0.028c16.17-0.034,32.337-0.727,48.502,0
		c0.043,0.002,0.079-0.007,0.121-0.007c0.274,0.075,0.549,0.15,0.817,0.244c0.044,0.031,0.413,0.193,0.44,0.208
		c0.165,0.088,0.316,0.196,0.47,0.302c-0.07-0.03,0.299,0.28,0.336,0.317c0.04,0.041,0.061,0.059,0.087,0.083
		c0.02,0.035,0.045,0.075,0.088,0.141c0.02,0.028,0.172,0.337,0.22,0.411c0.038,0.108,0.069,0.218,0.099,0.329
		C77.962,11.55,77.953,11.58,77.952,11.617z"/>
	<path style="fill:#1E1E1C;" d="M69.813,16.455c-12.702-0.471-25.411-0.274-38.117-0.508c-1.114-0.021-1.84,0.557-2.196,1.326
		c-0.391,0.406-0.636,0.974-0.6,1.724c0.235,4.826,0.255,9.654,0.255,14.485c0,0.869,0.362,1.5,0.886,1.908
		c0.409,0.525,1.041,0.887,1.909,0.887h36.847c1.104,0,1.827-0.581,2.188-1.345c0.319-0.376,0.545-0.859,0.608-1.451
		c0.496-4.646,0.743-9.304,0.762-13.977c0.001-0.282-0.046-0.531-0.115-0.765C72.103,17.589,71.298,16.51,69.813,16.455z
		 M66.724,31.193h-32.49c-0.008-3.378-0.044-6.754-0.168-10.13c11.06,0.161,22.122,0.058,33.179,0.394
		C67.184,24.709,67.014,27.954,66.724,31.193z"/>
	<path style="fill:#1E1E1C;" d="M39.25,41H31.5c-0.35,0-0.654,0.068-0.928,0.173c-0.986,0.242-1.822,1.011-1.822,2.327
		c0,2.754-0.02,5.504-0.25,8.25c-0.054,0.639,0.106,1.145,0.391,1.528c0.36,0.762,1.06,1.375,2.109,1.472
		c2.496,0.231,4.996,0.25,7.5,0.25c0.378,0,0.708-0.074,0.997-0.195c1.001-0.247,1.893-1.01,2.003-2.305
		c0.22-2.58,0.25-5.162,0.25-7.75c0-0.286-0.051-0.537-0.122-0.772C41.86,42.591,41.068,41,39.25,41z M36.654,49.988
		c-1.012-0.01-2.022-0.029-3.033-0.072c0.069-1.304,0.097-2.61,0.111-3.916h3.009C36.732,47.33,36.712,48.66,36.654,49.988z"/>
	<path style="fill:#1E1E1C;" d="M54.25,41H46.5c-0.35,0-0.654,0.068-0.928,0.173c-0.986,0.242-1.822,1.011-1.822,2.327
		c0,2.754-0.02,5.504-0.25,8.25c-0.054,0.639,0.106,1.145,0.391,1.528c0.36,0.762,1.06,1.375,2.109,1.472
		c2.496,0.231,4.996,0.25,7.5,0.25c0.378,0,0.708-0.074,0.997-0.195c1.001-0.247,1.893-1.01,2.003-2.305
		c0.22-2.58,0.25-5.162,0.25-7.75c0-0.286-0.051-0.537-0.122-0.772C56.86,42.591,56.068,41,54.25,41z M51.654,49.988
		c-1.012-0.01-2.022-0.029-3.033-0.072c0.069-1.304,0.097-2.61,0.111-3.916h3.009C51.732,47.33,51.712,48.66,51.654,49.988z"/>
	<path style="fill:#1E1E1C;" d="M69.25,41H61.5c-0.35,0-0.654,0.068-0.928,0.173c-0.986,0.242-1.822,1.011-1.822,2.327
		c0,2.754-0.02,5.504-0.25,8.25c-0.054,0.639,0.106,1.145,0.391,1.528c0.36,0.762,1.06,1.375,2.109,1.472
		c2.496,0.231,4.996,0.25,7.5,0.25c0.378,0,0.708-0.074,0.997-0.195c1.001-0.247,1.893-1.01,2.003-2.305
		c0.22-2.58,0.25-5.162,0.25-7.75c0-0.286-0.051-0.537-0.122-0.772C71.86,42.591,71.068,41,69.25,41z M66.654,49.988
		c-1.012-0.01-2.022-0.029-3.033-0.072c0.069-1.304,0.097-2.61,0.111-3.916h3.009C66.732,47.33,66.712,48.66,66.654,49.988z"/>
	<path style="fill:#1E1E1C;" d="M39.25,57H31.5c-0.35,0-0.654,0.068-0.928,0.173c-0.986,0.242-1.822,1.011-1.822,2.327
		c0,2.754-0.02,5.504-0.25,8.25c-0.054,0.639,0.106,1.145,0.391,1.528c0.36,0.762,1.06,1.375,2.109,1.472
		c2.496,0.231,4.996,0.25,7.5,0.25c0.378,0,0.708-0.074,0.997-0.195c1.001-0.247,1.893-1.01,2.003-2.305
		c0.22-2.58,0.25-5.162,0.25-7.75c0-0.286-0.051-0.537-0.122-0.772C41.86,58.591,41.068,57,39.25,57z M36.654,65.988
		c-1.012-0.01-2.022-0.029-3.033-0.072c0.069-1.304,0.097-2.61,0.111-3.916h3.009C36.732,63.33,36.712,64.66,36.654,65.988z"/>
	<path style="fill:#1E1E1C;" d="M54.25,57H46.5c-0.35,0-0.654,0.068-0.928,0.173c-0.986,0.242-1.822,1.011-1.822,2.327
		c0,2.754-0.02,5.504-0.25,8.25c-0.054,0.639,0.106,1.145,0.391,1.528c0.36,0.762,1.06,1.375,2.109,1.472
		c2.496,0.231,4.996,0.25,7.5,0.25c0.378,0,0.708-0.074,0.997-0.195c1.001-0.247,1.893-1.01,2.003-2.305
		c0.22-2.58,0.25-5.162,0.25-7.75c0-0.286-0.051-0.537-0.122-0.772C56.86,58.591,56.068,57,54.25,57z M51.654,65.988
		c-1.012-0.01-2.022-0.029-3.033-0.072c0.069-1.304,0.097-2.61,0.111-3.916h3.009C51.732,63.33,51.712,64.66,51.654,65.988z"/>
	<path style="fill:#1E1E1C;" d="M69.25,57H61.5c-0.35,0-0.654,0.068-0.928,0.173c-0.986,0.242-1.822,1.011-1.822,2.327
		c0,2.754-0.02,5.504-0.25,8.25c-0.054,0.639,0.106,1.145,0.391,1.528c0.36,0.762,1.06,1.375,2.109,1.472
		c2.496,0.231,4.996,0.25,7.5,0.25c0.378,0,0.708-0.074,0.997-0.195c1.001-0.247,1.893-1.01,2.003-2.305
		c0.22-2.58,0.25-5.162,0.25-7.75c0-0.286-0.051-0.537-0.122-0.772C71.86,58.591,71.068,57,69.25,57z M66.654,65.988
		c-1.012-0.01-2.022-0.029-3.033-0.072c0.069-1.304,0.097-2.61,0.111-3.916h3.009C66.732,63.33,66.712,64.66,66.654,65.988z"/>
	<path style="fill:#1E1E1C;" d="M39.25,73H31.5c-0.35,0-0.654,0.068-0.928,0.173c-0.986,0.242-1.822,1.011-1.822,2.327
		c0,2.754-0.02,5.504-0.25,8.25c-0.054,0.639,0.106,1.145,0.391,1.528c0.36,0.762,1.06,1.375,2.109,1.472
		c2.496,0.231,4.996,0.25,7.5,0.25c0.378,0,0.708-0.074,0.997-0.195c1.001-0.247,1.893-1.01,2.003-2.305
		c0.22-2.58,0.25-5.162,0.25-7.75c0-0.286-0.051-0.537-0.122-0.772C41.86,74.591,41.068,73,39.25,73z M36.654,81.988
		c-1.012-0.01-2.022-0.029-3.033-0.072c0.069-1.304,0.097-2.61,0.111-3.916h3.009C36.732,79.33,36.712,80.66,36.654,81.988z"/>
	<path style="fill:#1E1E1C;" d="M54.25,73H46.5c-0.35,0-0.654,0.068-0.928,0.173c-0.986,0.242-1.822,1.011-1.822,2.327
		c0,2.754-0.02,5.504-0.25,8.25c-0.054,0.639,0.106,1.145,0.391,1.528c0.36,0.762,1.06,1.375,2.109,1.472
		c2.496,0.231,4.996,0.25,7.5,0.25c0.378,0,0.708-0.074,0.997-0.195c1.001-0.247,1.893-1.01,2.003-2.305
		c0.22-2.58,0.25-5.162,0.25-7.75c0-0.286-0.051-0.537-0.122-0.772C56.86,74.591,56.068,73,54.25,73z M51.654,81.988
		c-1.012-0.01-2.022-0.029-3.033-0.072c0.069-1.304,0.097-2.61,0.111-3.916h3.009C51.732,79.33,51.712,80.66,51.654,81.988z"/>
	<path style="fill:#1E1E1C;" d="M69.25,73H61.5c-0.35,0-0.654,0.068-0.928,0.173c-0.986,0.242-1.822,1.011-1.822,2.327
		c0,2.754-0.02,5.504-0.25,8.25c-0.054,0.639,0.106,1.145,0.391,1.528c0.36,0.762,1.06,1.375,2.109,1.472
		c2.496,0.231,4.996,0.25,7.5,0.25c0.378,0,0.708-0.074,0.997-0.195c1.001-0.247,1.893-1.01,2.003-2.305
		c0.22-2.58,0.25-5.162,0.25-7.75c0-0.286-0.051-0.537-0.122-0.772C71.86,74.591,71.068,73,69.25,73z M66.654,81.988
		c-1.012-0.01-2.022-0.029-3.033-0.072c0.069-1.304,0.097-2.61,0.111-3.916h3.009C66.732,79.33,66.712,80.66,66.654,81.988z"/>
</g>
</svg>
