<?xml version="1.0" encoding="UTF-8" standalone="no"?>
<!-- Generator: Adobe Illustrator 16.0.0, SVG Export Plug-In . SVG Version: 6.00 Build 0)  -->

<svg
   xmlns:dc="http://purl.org/dc/elements/1.1/"
   xmlns:cc="http://creativecommons.org/ns#"
   xmlns:rdf="http://www.w3.org/1999/02/22-rdf-syntax-ns#"
   xmlns:svg="http://www.w3.org/2000/svg"
   xmlns="http://www.w3.org/2000/svg"
   xmlns:sodipodi="http://sodipodi.sourceforge.net/DTD/sodipodi-0.dtd"
   xmlns:inkscape="http://www.inkscape.org/namespaces/inkscape"
   version="1.1"
   id="Layer_1"
   x="0px"
   y="0px"
   width="64"
   height="64"
   viewBox="0 0 64 64"
   enable-background="new 0 0 50 50"
   xml:space="preserve"
   inkscape:version="0.48.4 r9939"
   sodipodi:docname="document62-2.svg"><metadata
     id="metadata25"><rdf:RDF><cc:Work
         rdf:about=""><dc:format>image/svg+xml</dc:format><dc:type
           rdf:resource="http://purl.org/dc/dcmitype/StillImage" /><dc:title /></cc:Work></rdf:RDF></metadata><defs
     id="defs23" /><sodipodi:namedview
     pagecolor="#ffffff"
     bordercolor="#666666"
     borderopacity="1"
     objecttolerance="10"
     gridtolerance="10"
     guidetolerance="10"
     inkscape:pageopacity="0"
     inkscape:pageshadow="2"
     inkscape:window-width="729"
     inkscape:window-height="480"
     id="namedview21"
     showgrid="false"
     inkscape:zoom="4.72"
     inkscape:cx="34.427966"
     inkscape:cy="33.474576"
     inkscape:window-x="0"
     inkscape:window-y="0"
     inkscape:window-maximized="0"
     inkscape:current-layer="Layer_1" /><g
     id="g3"
     transform="matrix(1.9652747,0,0,1.9652747,-17.131867,-17.131867)"><path
       d="m 39.133,25.254 c 0.037,-0.94 -0.121,-1.896 -0.472,-2.805 l 1.457,-0.906 -1.428,-2.288 -1.456,0.912 c -0.665,-0.715 -1.451,-1.271 -2.309,-1.655 l 0.383,-1.67 -2.626,-0.603 -0.382,1.671 c -0.314,-0.013 -0.63,0.005 -0.944,0.036 v -3.498 c 0,-1.454 -1.183,-2.637 -2.639,-2.637 H 11.836 c -1.456,0 -2.639,1.183 -2.639,2.637 v 21.104 c 0,1.454 1.183,2.637 2.639,2.637 h 16.881 c 1.456,0 2.639,-1.183 2.639,-2.637 V 33.75 l 0.048,0.011 0.385,-1.671 c 0.938,0.037 1.892,-0.117 2.803,-0.473 l 0.909,1.458 2.283,-1.428 -0.908,-1.456 c 0.715,-0.661 1.273,-1.454 1.652,-2.312 l 1.67,0.386 0.605,-2.626 -1.67,-0.385 z m -8.832,10.298 c 0,0.872 -0.711,1.582 -1.584,1.582 H 11.836 c -0.873,0 -1.584,-0.71 -1.584,-1.582 V 14.448 c 0,-0.872 0.711,-1.582 1.584,-1.582 h 16.881 c 0.873,0 1.584,0.71 1.584,1.582 v 21.104 z m 4.303,-6.449 c -1.009,0.631 -2.157,0.822 -3.249,0.664 v -9.549 c 1.837,-0.262 3.743,0.544 4.79,2.22 1.416,2.263 0.724,5.251 -1.541,6.665 z"
       id="path5"
       inkscape:connector-curvature="0" /><path
       d="M 26.654,16.371 H 13.898 c -0.269,0 -0.484,0.217 -0.484,0.485 0,0.268 0.216,0.484 0.484,0.484 h 12.756 c 0.269,0 0.484,-0.216 0.484,-0.484 0,-0.268 -0.215,-0.485 -0.484,-0.485 z"
       id="path7"
       inkscape:connector-curvature="0" /><path
       d="M 26.654,19.086 H 13.898 c -0.269,0 -0.484,0.217 -0.484,0.485 0,0.268 0.216,0.483 0.484,0.483 h 12.756 c 0.269,0 0.484,-0.215 0.484,-0.483 0,-0.268 -0.215,-0.485 -0.484,-0.485 z"
       id="path9"
       inkscape:connector-curvature="0" /><path
       d="M 26.654,21.8 H 13.898 c -0.269,0 -0.484,0.218 -0.484,0.485 0,0.269 0.216,0.484 0.484,0.484 h 12.756 c 0.269,0 0.484,-0.216 0.484,-0.484 C 27.139,22.018 26.923,21.8 26.654,21.8 z"
       id="path11"
       inkscape:connector-curvature="0" /><path
       d="M 26.654,24.515 H 13.898 c -0.269,0 -0.484,0.217 -0.484,0.485 0,0.268 0.216,0.484 0.484,0.484 h 12.756 c 0.269,0 0.484,-0.217 0.484,-0.484 10e-4,-0.269 -0.215,-0.485 -0.484,-0.485 z"
       id="path13"
       inkscape:connector-curvature="0" /><path
       d="M 26.654,27.229 H 13.898 c -0.269,0 -0.484,0.217 -0.484,0.485 0,0.267 0.216,0.483 0.484,0.483 h 12.756 c 0.269,0 0.484,-0.217 0.484,-0.483 10e-4,-0.268 -0.215,-0.485 -0.484,-0.485 z"
       id="path15"
       inkscape:connector-curvature="0" /><path
       d="M 26.654,29.943 H 13.898 c -0.269,0 -0.484,0.217 -0.484,0.485 0,0.268 0.216,0.484 0.484,0.484 h 12.756 c 0.269,0 0.484,-0.217 0.484,-0.484 10e-4,-0.268 -0.215,-0.485 -0.484,-0.485 z"
       id="path17"
       inkscape:connector-curvature="0" /><path
       d="m 20.129,32.658 h -6.23 c -0.269,0 -0.484,0.217 -0.484,0.485 0,0.267 0.216,0.484 0.484,0.484 h 6.23 c 0.267,0 0.482,-0.218 0.482,-0.484 0,-0.268 -0.215,-0.485 -0.482,-0.485 z"
       id="path19"
       inkscape:connector-curvature="0" /></g></svg>