<?xml version="1.0" encoding="UTF-8" standalone="no"?>
<!-- Generator: Adobe Illustrator 16.0.0, SVG Export Plug-In . SVG Version: 6.00 Build 0)  -->

<svg
   xmlns:dc="http://purl.org/dc/elements/1.1/"
   xmlns:cc="http://creativecommons.org/ns#"
   xmlns:rdf="http://www.w3.org/1999/02/22-rdf-syntax-ns#"
   xmlns:svg="http://www.w3.org/2000/svg"
   xmlns="http://www.w3.org/2000/svg"
   xmlns:sodipodi="http://sodipodi.sourceforge.net/DTD/sodipodi-0.dtd"
   xmlns:inkscape="http://www.inkscape.org/namespaces/inkscape"
   version="1.1"
   id="Layer_1"
   x="0px"
   y="0px"
   width="64"
   height="64"
   viewBox="0 0 64 64"
   enable-background="new 0 0 50 50"
   xml:space="preserve"
   inkscape:version="0.48.4 r9939"
   sodipodi:docname="document7-2.svg"><metadata
     id="metadata25"><rdf:RDF><cc:Work
         rdf:about=""><dc:format>image/svg+xml</dc:format><dc:type
           rdf:resource="http://purl.org/dc/dcmitype/StillImage" /><dc:title></dc:title></cc:Work></rdf:RDF></metadata><defs
     id="defs23" /><sodipodi:namedview
     pagecolor="#ffffff"
     bordercolor="#666666"
     borderopacity="1"
     objecttolerance="10"
     gridtolerance="10"
     guidetolerance="10"
     inkscape:pageopacity="0"
     inkscape:pageshadow="2"
     inkscape:window-width="1117"
     inkscape:window-height="678"
     id="namedview21"
     showgrid="false"
     inkscape:zoom="0.834386"
     inkscape:cx="-92.556619"
     inkscape:cy="129.73021"
     inkscape:window-x="0"
     inkscape:window-y="0"
     inkscape:window-maximized="0"
     inkscape:current-layer="g3" /><g
     id="g3"
     transform="matrix(1.9652747,0,0,1.9652747,-17.131867,-17.131867)"><path
       d="m 29.483656,19.960016 c 0,-1.277622 -1.039496,-2.317117 -2.318874,-2.317117 l -14.833235,0 c -1.279378,0 -2.318873,1.039495 -2.318873,2.317117 l 0,18.543959 c 0,1.277621 1.039495,2.317116 2.318873,2.317116 l 14.833235,0 c 1.279378,0 2.318874,-1.039495 2.318874,-2.317116 -0.0035,-19.823367 0,-11.227409 0,-18.543959 z m -0.927022,18.543959 c 0,0.766221 -0.624752,1.390094 -1.391852,1.390094 l -14.833235,0 c -0.7671,0 -1.391851,-0.623873 -1.391851,-1.390094 l 0,-18.543959 c 0,-0.766222 0.624751,-1.390095 1.391851,-1.390095 l 14.833235,0 c 0.7671,0 1.391852,0.623873 1.391852,1.390095 z"
       id="path5"
       inkscape:connector-curvature="0"
       sodipodi:nodetypes="cssssssccsssssssss" /><path
       d="M 25.352037,21.649744 H 14.143415 c -0.236369,0 -0.425288,0.190677 -0.425288,0.426166 0,0.235491 0.189798,0.425289 0.425288,0.425289 h 11.208622 c 0.236368,0 0.425287,-0.189798 0.425287,-0.425289 0,-0.235489 -0.188919,-0.426166 -0.425287,-0.426166 z"
       id="path7"
       inkscape:connector-curvature="0" /><path
       d="M 25.352037,24.035399 H 14.143415 c -0.236369,0 -0.425288,0.190676 -0.425288,0.426165 0,0.235491 0.189798,0.42441 0.425288,0.42441 h 11.208622 c 0.236368,0 0.425287,-0.188919 0.425287,-0.42441 0,-0.235489 -0.188919,-0.426165 -0.425287,-0.426165 z"
       id="path9"
       inkscape:connector-curvature="0" /><path
       d="M 25.352037,26.420174 H 14.143415 c -0.236369,0 -0.425288,0.191555 -0.425288,0.426167 0,0.236368 0.189798,0.425288 0.425288,0.425288 h 11.208622 c 0.236368,0 0.425287,-0.189798 0.425287,-0.425288 8.79e-4,-0.234612 -0.188919,-0.426167 -0.425287,-0.426167 z"
       id="path11"
       inkscape:connector-curvature="0" /><path
       d="M 25.352037,28.805828 H 14.143415 c -0.236369,0 -0.425288,0.190677 -0.425288,0.426167 0,0.23549 0.189798,0.425288 0.425288,0.425288 h 11.208622 c 0.236368,0 0.425287,-0.190677 0.425287,-0.425288 8.79e-4,-0.236369 -0.188919,-0.426167 -0.425287,-0.426167 z"
       id="path13"
       inkscape:connector-curvature="0" /><path
       d="M 25.352037,31.190604 H 14.143415 c -0.236369,0 -0.425288,0.190676 -0.425288,0.426167 0,0.234611 0.189798,0.424409 0.425288,0.424409 h 11.208622 c 0.236368,0 0.425287,-0.190676 0.425287,-0.424409 8.79e-4,-0.235491 -0.188919,-0.426167 -0.425287,-0.426167 z"
       id="path15"
       inkscape:connector-curvature="0" /><path
       d="M 25.352037,33.57538 H 14.143415 c -0.236369,0 -0.425288,0.190677 -0.425288,0.426166 0,0.23549 0.189798,0.425288 0.425288,0.425288 h 11.208622 c 0.236368,0 0.425287,-0.190676 0.425287,-0.425288 8.79e-4,-0.235489 -0.188919,-0.426166 -0.425287,-0.426166 z"
       id="path17"
       inkscape:connector-curvature="0" /><path
       d="m 19.618557,35.961034 h -5.474264 c -0.236368,0 -0.425287,0.190677 -0.425287,0.426166 0,0.234612 0.189798,0.425289 0.425287,0.425289 h 5.474264 c 0.234612,0 0.423531,-0.191556 0.423531,-0.425289 0,-0.235489 -0.188919,-0.426166 -0.423531,-0.426166 z"
       id="path19"
       inkscape:connector-curvature="0" /><path
       d="m 32.276502,17.154962 c 0,-1.277621 -1.039495,-2.317115 -2.318873,-2.317115 l -14.833235,0 c -1.279379,0 -2.318874,1.039494 -2.318874,2.317115 18.541241,0 16.928035,1.065113 17.152109,20.861077 1.279378,0 2.318873,-1.039496 2.318873,-2.317117 -0.0035,-19.823367 0,-11.227409 0,-18.54396 z m -0.927022,18.54396 c 0,0.766222 -0.624752,1.390094 -1.391851,1.390094 C 29.657617,18.824383 31.3574,17.154962 13.732542,17.154962 c 0,-0.766221 0.624752,-1.390093 1.391852,-1.390093 l 14.833235,0 c 0.767099,0 1.391851,0.623872 1.391851,1.390093 z"
       id="path3080"
       inkscape:connector-curvature="0"
       sodipodi:nodetypes="cssccccsccssss" /><path
       sodipodi:nodetypes="cssccccsccssss"
       inkscape:connector-curvature="0"
       id="path3084"
       d="m 35.051994,14.41736 c 0,-1.277621 -1.039495,-2.317115 -2.318874,-2.317115 l -14.833234,0 c -1.279379,0 -2.318874,1.039494 -2.318874,2.317115 18.541242,0 16.928035,1.065113 17.152108,20.861076 1.279379,0 2.318874,-1.039495 2.318874,-2.317116 -0.0035,-19.823367 0,-11.227409 0,-18.54396 z m -0.927022,18.54396 c 0,0.766221 -0.624752,1.390094 -1.391852,1.390094 C 32.433109,16.08678 34.132892,14.41736 16.508035,14.41736 c 0,-0.766221 0.624751,-1.390093 1.391851,-1.390093 l 14.833234,0 c 0.7671,0 1.391852,0.623872 1.391852,1.390093 z" /><path
       d="m 37.82331,11.638075 c 0,-1.27762 -1.039495,-2.3171151 -2.318873,-2.3171151 l -14.833235,0 c -1.279378,0 -2.318874,1.0394951 -2.318874,2.3171151 18.541241,0 16.928036,1.065113 17.152109,20.861075 1.279378,0 2.318873,-1.039494 2.318873,-2.317115 -0.0035,-19.823367 0,-11.227409 0,-18.54396 z m -0.927022,18.54396 c 0,0.76622 -0.624751,1.390093 -1.391851,1.390093 -0.300012,-18.264633 1.399772,-19.934053 -16.225087,-19.934053 0,-0.766221 0.624752,-1.390094 1.391852,-1.390094 l 14.833235,0 c 0.7671,0 1.391851,0.623873 1.391851,1.390094 z"
       id="path3086"
       inkscape:connector-curvature="0"
       sodipodi:nodetypes="cssccccsccssss" /></g></svg>