<?xml version="1.0" encoding="UTF-8" standalone="no"?>
<!-- Generator: Adobe Illustrator 16.0.0, SVG Export Plug-In . SVG Version: 6.00 Build 0)  -->

<svg
   xmlns:dc="http://purl.org/dc/elements/1.1/"
   xmlns:cc="http://creativecommons.org/ns#"
   xmlns:rdf="http://www.w3.org/1999/02/22-rdf-syntax-ns#"
   xmlns:svg="http://www.w3.org/2000/svg"
   xmlns="http://www.w3.org/2000/svg"
   xmlns:sodipodi="http://sodipodi.sourceforge.net/DTD/sodipodi-0.dtd"
   xmlns:inkscape="http://www.inkscape.org/namespaces/inkscape"
   version="1.1"
   id="Layer_1"
   x="0px"
   y="0px"
   width="100px"
   height="100px"
   viewBox="0 0 100 100"
   enable-background="new 0 0 100 100"
   xml:space="preserve"
   inkscape:version="0.48.4 r9939"
   sodipodi:docname="eraser.svg"><metadata
     id="metadata11"><rdf:RDF><cc:Work
         rdf:about=""><dc:format>image/svg+xml</dc:format><dc:type
           rdf:resource="http://purl.org/dc/dcmitype/StillImage" /></cc:Work></rdf:RDF></metadata><defs
     id="defs9" /><sodipodi:namedview
     pagecolor="#ffffff"
     bordercolor="#666666"
     borderopacity="1"
     objecttolerance="10"
     gridtolerance="10"
     guidetolerance="10"
     inkscape:pageopacity="0"
     inkscape:pageshadow="2"
     inkscape:window-width="640"
     inkscape:window-height="480"
     id="namedview7"
     showgrid="false"
     inkscape:zoom="2.36"
     inkscape:cx="50"
     inkscape:cy="50"
     inkscape:window-x="0"
     inkscape:window-y="0"
     inkscape:window-maximized="0"
     inkscape:current-layer="Layer_1" /><g
     id="g3"
     transform="matrix(1.2899369,0,0,1.2899369,-15.43029,-14.200554)"><path
       d="m 74.692,45.786 -18.89,-18.89 c -0.653,-0.653 -1.779,-0.587 -2.514,0.148 L 27.722,52.61 c -0.734,0.734 -0.801,1.859 -0.148,2.513 l 18.891,18.892 c 0.223,0.223 0.507,0.33 0.805,0.388 0.33,0.291 0.76,0.472 1.234,0.472 h 22.832 c 1.039,0 1.882,-0.843 1.882,-1.882 0,-1.038 -0.843,-1.882 -1.882,-1.882 H 51.732 L 74.544,48.299 c 0.734,-0.735 0.801,-1.86 0.148,-2.513 z M 56.628,61.485 40.103,44.96 37.443,47.62 53.968,64.146 47.943,70.169 31.417,53.645 54.322,30.74 70.848,47.265 56.628,61.485 z"
       id="path5"
       inkscape:connector-curvature="0" /></g></svg>