<?xml version="1.0" encoding="utf-8"?>
<!-- Generator: Adobe Illustrator 16.0.0, SVG Export Plug-In . SVG Version: 6.00 Build 0)  -->
<!DOCTYPE svg PUBLIC "-//W3C//DTD SVG 1.1//EN" "http://www.w3.org/Graphics/SVG/1.1/DTD/svg11.dtd">
<svg version="1.1" id="Layer_1" xmlns="http://www.w3.org/2000/svg" xmlns:xlink="http://www.w3.org/1999/xlink" x="0px" y="0px"
	 width="100px" height="100px" viewBox="0 0 100 100" enable-background="new 0 0 100 100" xml:space="preserve">
<g>
	<path d="M79.528,18.22h-54.7c-2.666,0-4.835,2.168-4.835,4.834v54.701c0,2.666,2.169,4.834,4.835,4.834h54.7
		c2.666,0,4.835-2.168,4.835-4.834V23.054C84.363,20.388,82.194,18.22,79.528,18.22z M24.828,22.22h54.7
		c0.46,0,0.835,0.375,0.835,0.834v42.037L66.899,51.774c-0.702-0.695-1.808-0.775-2.601-0.182l-9.246,6.881L43.697,40.001
		c-0.354-0.574-0.974-0.932-1.648-0.951c-0.665-0.029-1.314,0.305-1.699,0.859l-16.356,23.58V23.054
		C23.993,22.595,24.368,22.22,24.828,22.22z M79.528,78.589h-54.7c-0.46,0-0.835-0.375-0.835-0.834v-7.246l17.899-25.805
		l10.896,17.727c0.294,0.477,0.775,0.811,1.326,0.916c0.554,0.107,1.122-0.023,1.572-0.359l9.621-7.16l15.055,14.891v7.037
		C80.363,78.214,79.988,78.589,79.528,78.589z"/>
	<path d="M61.993,46.946c5.248,0,9.518-4.27,9.518-9.518c0-5.25-4.27-9.52-9.518-9.52s-9.518,4.27-9.518,9.52
		C52.476,42.677,56.745,46.946,61.993,46.946z M61.993,31.909c3.042,0,5.518,2.477,5.518,5.52s-2.476,5.518-5.518,5.518
		s-5.518-2.475-5.518-5.518S58.951,31.909,61.993,31.909z"/>
</g>
</svg>
