<?xml version="1.0" encoding="UTF-8" standalone="no"?>
<!-- Created with Inkscape (http://www.inkscape.org/) -->

<svg
   xmlns:dc="http://purl.org/dc/elements/1.1/"
   xmlns:cc="http://creativecommons.org/ns#"
   xmlns:rdf="http://www.w3.org/1999/02/22-rdf-syntax-ns#"
   xmlns:svg="http://www.w3.org/2000/svg"
   xmlns="http://www.w3.org/2000/svg"
   xmlns:sodipodi="http://sodipodi.sourceforge.net/DTD/sodipodi-0.dtd"
   xmlns:inkscape="http://www.inkscape.org/namespaces/inkscape"
   width="130"
   height="130"
   id="svg4283"
   version="1.1"
   inkscape:version="0.48.4 r9939"
   sodipodi:docname="calculator.svg">
  <defs
     id="defs4285" />
  <sodipodi:namedview
     id="base"
     pagecolor="#ffffff"
     bordercolor="#666666"
     borderopacity="1.0"
     inkscape:pageopacity="0.0"
     inkscape:pageshadow="2"
     inkscape:zoom="0.25"
     inkscape:cx="58.859083"
     inkscape:cy="108.69025"
     inkscape:document-units="px"
     inkscape:current-layer="g3"
     showgrid="false"
     inkscape:window-width="820"
     inkscape:window-height="590"
     inkscape:window-x="119"
     inkscape:window-y="19"
     inkscape:window-maximized="0" />
  <metadata
     id="metadata4288">
    <rdf:RDF>
      <cc:Work
         rdf:about="">
        <dc:format>image/svg+xml</dc:format>
        <dc:type
           rdf:resource="http://purl.org/dc/dcmitype/StillImage" />
        <dc:title />
      </cc:Work>
    </rdf:RDF>
  </metadata>
  <g
     inkscape:label="Layer 1"
     inkscape:groupmode="layer"
     id="layer1"
     transform="translate(0,-922.36218)">
    <g
       style="fill:#008066"
       transform="matrix(1.3313969,0,0,1.3313969,-1.8251316,921.00218)"
       id="g3">
      <path
         inkscape:connector-curvature="0"
         style="fill:#008066;fill-opacity:1;stroke:#008066;stroke-opacity:1;stroke-width:1.50218166;stroke-miterlimit:4;stroke-dasharray:none"
         d="M 83.188,10.376 C 82.381,7.109 79.712,5.004 76.53,4.251 76.205,4.174 75.877,4.161 75.559,4.195 75.468,4.183 75.384,4.16 75.288,4.156 59.123,3.429 42.956,4.122 26.786,4.156 26.701,4.156 26.628,4.174 26.548,4.18 26.449,4.172 26.358,4.154 26.253,4.156 24,4.196 21.616,4.81 20.138,6.635 c -1.516,1.872 -1.893,4.234 -1.613,6.581 0.043,0.359 0.131,0.703 0.265,1.02 -0.004,3.627 -0.04,7.25 -0.202,10.873 -0.041,0.197 -0.064,0.406 -0.062,0.633 0.002,0.262 -0.001,0.524 0.001,0.786 -0.001,0.004 -0.001,0.009 -0.001,0.013 0,0.005 0.001,0.009 0.001,0.014 0.16,20.522 -1.258,41.023 -0.801,61.547 0.003,0.137 0.028,0.26 0.047,0.386 -0.019,0.281 -0.011,0.568 0.048,0.855 0.821,4.013 4.172,6.408 8.167,6.487 0.112,0.002 0.211,-0.016 0.316,-0.025 0.074,0.006 0.14,0.024 0.217,0.025 15.634,0.265 31.267,0.521 46.903,0.533 0.181,0 0.348,-0.022 0.51,-0.05 0.097,0.017 0.19,0.04 0.289,0.05 2.896,0.29 5.634,-1.351 6.831,-3.985 0.187,-0.409 0.284,-0.837 0.306,-1.259 0.021,-0.116 0.051,-0.227 0.059,-0.353 1.802,-26.348 1.36,-52.762 1.866,-79.149 0.002,-0.136 -0.017,-0.257 -0.03,-0.382 0.016,-0.283 0.003,-0.572 -0.067,-0.859 z m -5.236,1.241 c -0.503,26.242 -0.074,52.511 -1.841,78.714 -0.053,0.084 -0.107,0.169 -0.122,0.202 -0.059,0.065 -0.115,0.133 -0.179,0.195 -0.033,0.034 -0.046,0.05 -0.067,0.074 -0.029,0.017 -0.055,0.031 -0.103,0.062 -0.074,0.045 -0.153,0.082 -0.23,0.123 0.133,-0.081 -0.175,0.029 -0.333,0.079 -0.028,0.002 -0.046,0.003 -0.082,0.006 -0.259,0.015 -0.519,-0.013 -0.774,-0.039 -0.189,-0.019 -0.373,-0.008 -0.553,0.025 C 73.585,91.051 73.509,91.033 73.422,91.033 57.785,91.021 42.152,90.765 26.519,90.5 26.406,90.498 26.308,90.517 26.204,90.526 26.13,90.519 26.063,90.502 25.986,90.5 c -0.838,-0.016 -1.335,-0.136 -2.029,-0.577 0.059,0.021 -0.135,-0.152 -0.265,-0.264 -0.018,-0.048 -0.303,-0.404 -0.315,-0.424 -0.118,-0.197 -0.235,-0.535 -0.336,-0.95 0.002,-0.062 0.015,-0.117 0.014,-0.182 -0.457,-20.532 0.963,-41.043 0.801,-61.574 0.238,-4.346 0.266,-8.693 0.266,-13.045 0,-0.526 -0.136,-0.962 -0.349,-1.327 -0.01,-0.356 -0.004,-0.712 0.022,-1.072 0.016,0.063 0.123,-0.501 0.125,-0.51 0.021,-0.061 0.036,-0.102 0.049,-0.141 0.043,-0.081 0.09,-0.159 0.137,-0.237 -0.043,0.088 0.088,-0.077 0.193,-0.207 -0.019,0.083 0.653,-0.382 0.235,-0.211 0.695,-0.284 1.077,-0.281 1.719,-0.293 0.085,-0.002 0.16,-0.02 0.241,-0.028 0.098,0.009 0.188,0.029 0.292,0.028 16.17,-0.034 32.337,-0.727 48.502,0 0.043,0.002 0.079,-0.007 0.121,-0.007 0.274,0.075 0.549,0.15 0.817,0.244 0.044,0.031 0.413,0.193 0.44,0.208 0.165,0.088 0.316,0.196 0.47,0.302 -0.07,-0.03 0.299,0.28 0.336,0.317 0.04,0.041 0.061,0.059 0.087,0.083 0.02,0.035 0.045,0.075 0.088,0.141 0.02,0.028 0.172,0.337 0.22,0.411 0.038,0.108 0.069,0.218 0.099,0.329 -0.004,0.036 -0.013,0.066 -0.014,0.103 z"
         id="path5" />
      <path
         inkscape:connector-curvature="0"
         style="fill:#008066;fill-opacity:1;stroke:#008066;stroke-opacity:1;stroke-width:1.50218166;stroke-miterlimit:4;stroke-dasharray:none"
         d="M 69.813,16.455 C 57.111,15.984 44.402,16.181 31.696,15.947 c -1.114,-0.021 -1.84,0.557 -2.196,1.326 -0.391,0.406 -0.636,0.974 -0.6,1.724 0.235,4.826 0.255,9.654 0.255,14.485 0,0.869 0.362,1.5 0.886,1.908 0.409,0.525 1.041,0.887 1.909,0.887 h 36.847 c 1.104,0 1.827,-0.581 2.188,-1.345 0.319,-0.376 0.545,-0.859 0.608,-1.451 0.496,-4.646 0.743,-9.304 0.762,-13.977 10e-4,-0.282 -0.046,-0.531 -0.115,-0.765 -0.137,-1.15 -0.942,-2.229 -2.427,-2.284 z m -3.089,14.738 h -32.49 c -0.008,-3.378 -0.044,-6.754 -0.168,-10.13 11.06,0.161 22.122,0.058 33.179,0.394 -0.061,3.252 -0.231,6.497 -0.521,9.736 z"
         id="path7" />
      <path
         inkscape:connector-curvature="0"
         style="fill:#008066;fill-opacity:1;stroke:#008066;stroke-opacity:1;stroke-width:1.50218166;stroke-miterlimit:4;stroke-dasharray:none"
         d="M 39.25,41 H 31.5 c -0.35,0 -0.654,0.068 -0.928,0.173 -0.986,0.242 -1.822,1.011 -1.822,2.327 0,2.754 -0.02,5.504 -0.25,8.25 -0.054,0.639 0.106,1.145 0.391,1.528 0.36,0.762 1.06,1.375 2.109,1.472 2.496,0.231 4.996,0.25 7.5,0.25 0.378,0 0.708,-0.074 0.997,-0.195 1.001,-0.247 1.893,-1.01 2.003,-2.305 0.22,-2.58 0.25,-5.162 0.25,-7.75 0,-0.286 -0.051,-0.537 -0.122,-0.772 C 41.86,42.591 41.068,41 39.25,41 z m -2.596,8.988 c -1.012,-0.01 -2.022,-0.029 -3.033,-0.072 0.069,-1.304 0.097,-2.61 0.111,-3.916 h 3.009 c -0.009,1.33 -0.029,2.66 -0.087,3.988 z"
         id="path9" />
      <path
         inkscape:connector-curvature="0"
         style="fill:#008066;fill-opacity:1;stroke:#008066;stroke-opacity:1;stroke-width:1.50218166;stroke-miterlimit:4;stroke-dasharray:none"
         d="M 54.25,41 H 46.5 c -0.35,0 -0.654,0.068 -0.928,0.173 -0.986,0.242 -1.822,1.011 -1.822,2.327 0,2.754 -0.02,5.504 -0.25,8.25 -0.054,0.639 0.106,1.145 0.391,1.528 0.36,0.762 1.06,1.375 2.109,1.472 2.496,0.231 4.996,0.25 7.5,0.25 0.378,0 0.708,-0.074 0.997,-0.195 1.001,-0.247 1.893,-1.01 2.003,-2.305 0.22,-2.58 0.25,-5.162 0.25,-7.75 0,-0.286 -0.051,-0.537 -0.122,-0.772 C 56.86,42.591 56.068,41 54.25,41 z m -2.596,8.988 c -1.012,-0.01 -2.022,-0.029 -3.033,-0.072 0.069,-1.304 0.097,-2.61 0.111,-3.916 h 3.009 c -0.009,1.33 -0.029,2.66 -0.087,3.988 z"
         id="path11" />
      <path
         inkscape:connector-curvature="0"
         style="fill:#008066;fill-opacity:1;stroke:#008066;stroke-opacity:1;stroke-width:1.50218166;stroke-miterlimit:4;stroke-dasharray:none"
         d="M 69.25,41 H 61.5 c -0.35,0 -0.654,0.068 -0.928,0.173 -0.986,0.242 -1.822,1.011 -1.822,2.327 0,2.754 -0.02,5.504 -0.25,8.25 -0.054,0.639 0.106,1.145 0.391,1.528 0.36,0.762 1.06,1.375 2.109,1.472 2.496,0.231 4.996,0.25 7.5,0.25 0.378,0 0.708,-0.074 0.997,-0.195 1.001,-0.247 1.893,-1.01 2.003,-2.305 0.22,-2.58 0.25,-5.162 0.25,-7.75 0,-0.286 -0.051,-0.537 -0.122,-0.772 C 71.86,42.591 71.068,41 69.25,41 z m -2.596,8.988 c -1.012,-0.01 -2.022,-0.029 -3.033,-0.072 0.069,-1.304 0.097,-2.61 0.111,-3.916 h 3.009 c -0.009,1.33 -0.029,2.66 -0.087,3.988 z"
         id="path13" />
      <path
         inkscape:connector-curvature="0"
         style="fill:#008066;fill-opacity:1;stroke:#008066;stroke-opacity:1;stroke-width:1.50218166;stroke-miterlimit:4;stroke-dasharray:none"
         d="M 39.25,57 H 31.5 c -0.35,0 -0.654,0.068 -0.928,0.173 -0.986,0.242 -1.822,1.011 -1.822,2.327 0,2.754 -0.02,5.504 -0.25,8.25 -0.054,0.639 0.106,1.145 0.391,1.528 0.36,0.762 1.06,1.375 2.109,1.472 2.496,0.231 4.996,0.25 7.5,0.25 0.378,0 0.708,-0.074 0.997,-0.195 1.001,-0.247 1.893,-1.01 2.003,-2.305 0.22,-2.58 0.25,-5.162 0.25,-7.75 0,-0.286 -0.051,-0.537 -0.122,-0.772 C 41.86,58.591 41.068,57 39.25,57 z m -2.596,8.988 c -1.012,-0.01 -2.022,-0.029 -3.033,-0.072 0.069,-1.304 0.097,-2.61 0.111,-3.916 h 3.009 c -0.009,1.33 -0.029,2.66 -0.087,3.988 z"
         id="path15" />
      <path
         inkscape:connector-curvature="0"
         style="fill:#008066;fill-opacity:1;stroke:#008066;stroke-opacity:1;stroke-width:1.50218166;stroke-miterlimit:4;stroke-dasharray:none"
         d="M 54.25,57 H 46.5 c -0.35,0 -0.654,0.068 -0.928,0.173 -0.986,0.242 -1.822,1.011 -1.822,2.327 0,2.754 -0.02,5.504 -0.25,8.25 -0.054,0.639 0.106,1.145 0.391,1.528 0.36,0.762 1.06,1.375 2.109,1.472 2.496,0.231 4.996,0.25 7.5,0.25 0.378,0 0.708,-0.074 0.997,-0.195 1.001,-0.247 1.893,-1.01 2.003,-2.305 0.22,-2.58 0.25,-5.162 0.25,-7.75 0,-0.286 -0.051,-0.537 -0.122,-0.772 C 56.86,58.591 56.068,57 54.25,57 z m -2.596,8.988 c -1.012,-0.01 -2.022,-0.029 -3.033,-0.072 0.069,-1.304 0.097,-2.61 0.111,-3.916 h 3.009 c -0.009,1.33 -0.029,2.66 -0.087,3.988 z"
         id="path17" />
      <path
         inkscape:connector-curvature="0"
         style="fill:#008066;fill-opacity:1;stroke:#008066;stroke-opacity:1;stroke-width:1.50218166;stroke-miterlimit:4;stroke-dasharray:none"
         d="M 69.25,57 H 61.5 c -0.35,0 -0.654,0.068 -0.928,0.173 -0.986,0.242 -1.822,1.011 -1.822,2.327 0,2.754 -0.02,5.504 -0.25,8.25 -0.054,0.639 0.106,1.145 0.391,1.528 0.36,0.762 1.06,1.375 2.109,1.472 2.496,0.231 4.996,0.25 7.5,0.25 0.378,0 0.708,-0.074 0.997,-0.195 1.001,-0.247 1.893,-1.01 2.003,-2.305 0.22,-2.58 0.25,-5.162 0.25,-7.75 0,-0.286 -0.051,-0.537 -0.122,-0.772 C 71.86,58.591 71.068,57 69.25,57 z m -2.596,8.988 c -1.012,-0.01 -2.022,-0.029 -3.033,-0.072 0.069,-1.304 0.097,-2.61 0.111,-3.916 h 3.009 c -0.009,1.33 -0.029,2.66 -0.087,3.988 z"
         id="path19" />
      <path
         inkscape:connector-curvature="0"
         style="fill:#008066;fill-opacity:1;stroke:#008066;stroke-opacity:1;stroke-width:1.50218166;stroke-miterlimit:4;stroke-dasharray:none"
         d="M 39.25,73 H 31.5 c -0.35,0 -0.654,0.068 -0.928,0.173 -0.986,0.242 -1.822,1.011 -1.822,2.327 0,2.754 -0.02,5.504 -0.25,8.25 -0.054,0.639 0.106,1.145 0.391,1.528 0.36,0.762 1.06,1.375 2.109,1.472 2.496,0.231 4.996,0.25 7.5,0.25 0.378,0 0.708,-0.074 0.997,-0.195 1.001,-0.247 1.893,-1.01 2.003,-2.305 0.22,-2.58 0.25,-5.162 0.25,-7.75 0,-0.286 -0.051,-0.537 -0.122,-0.772 C 41.86,74.591 41.068,73 39.25,73 z m -2.596,8.988 c -1.012,-0.01 -2.022,-0.029 -3.033,-0.072 0.069,-1.304 0.097,-2.61 0.111,-3.916 h 3.009 c -0.009,1.33 -0.029,2.66 -0.087,3.988 z"
         id="path21" />
      <path
         inkscape:connector-curvature="0"
         style="fill:#008066;fill-opacity:1;stroke:#008066;stroke-opacity:1;stroke-width:1.50218166;stroke-miterlimit:4;stroke-dasharray:none"
         d="M 54.25,73 H 46.5 c -0.35,0 -0.654,0.068 -0.928,0.173 -0.986,0.242 -1.822,1.011 -1.822,2.327 0,2.754 -0.02,5.504 -0.25,8.25 -0.054,0.639 0.106,1.145 0.391,1.528 0.36,0.762 1.06,1.375 2.109,1.472 2.496,0.231 4.996,0.25 7.5,0.25 0.378,0 0.708,-0.074 0.997,-0.195 1.001,-0.247 1.893,-1.01 2.003,-2.305 0.22,-2.58 0.25,-5.162 0.25,-7.75 0,-0.286 -0.051,-0.537 -0.122,-0.772 C 56.86,74.591 56.068,73 54.25,73 z m -2.596,8.988 c -1.012,-0.01 -2.022,-0.029 -3.033,-0.072 0.069,-1.304 0.097,-2.61 0.111,-3.916 h 3.009 c -0.009,1.33 -0.029,2.66 -0.087,3.988 z"
         id="path23" />
      <path
         inkscape:connector-curvature="0"
         style="fill:#008066;fill-opacity:1;stroke:#008066;stroke-opacity:1;stroke-width:1.50218166;stroke-miterlimit:4;stroke-dasharray:none"
         d="M 69.25,73 H 61.5 c -0.35,0 -0.654,0.068 -0.928,0.173 -0.986,0.242 -1.822,1.011 -1.822,2.327 0,2.754 -0.02,5.504 -0.25,8.25 -0.054,0.639 0.106,1.145 0.391,1.528 0.36,0.762 1.06,1.375 2.109,1.472 2.496,0.231 4.996,0.25 7.5,0.25 0.378,0 0.708,-0.074 0.997,-0.195 1.001,-0.247 1.893,-1.01 2.003,-2.305 0.22,-2.58 0.25,-5.162 0.25,-7.75 0,-0.286 -0.051,-0.537 -0.122,-0.772 C 71.86,74.591 71.068,73 69.25,73 z m -2.596,8.988 c -1.012,-0.01 -2.022,-0.029 -3.033,-0.072 0.069,-1.304 0.097,-2.61 0.111,-3.916 h 3.009 c -0.009,1.33 -0.029,2.66 -0.087,3.988 z"
         id="path25" />
    </g>
  </g>
</svg>
