<?xml version="1.0" encoding="UTF-8" standalone="no"?>
<!-- Generator: Adobe Illustrator 16.0.0, SVG Export Plug-In . SVG Version: 6.00 Build 0)  -->

<svg
   xmlns:dc="http://purl.org/dc/elements/1.1/"
   xmlns:cc="http://creativecommons.org/ns#"
   xmlns:rdf="http://www.w3.org/1999/02/22-rdf-syntax-ns#"
   xmlns:svg="http://www.w3.org/2000/svg"
   xmlns="http://www.w3.org/2000/svg"
   xmlns:sodipodi="http://sodipodi.sourceforge.net/DTD/sodipodi-0.dtd"
   xmlns:inkscape="http://www.inkscape.org/namespaces/inkscape"
   version="1.1"
   x="0px"
   y="0px"
   width="14"
   height="16"
   viewBox="0 0 14 16"
   enable-background="new 0 0 50 50"
   xml:space="preserve"
   id="svg2"
   inkscape:version="0.48.4 r9939"
   sodipodi:docname="list41-2-3.svg"
   inkscape:export-filename="/home/vyacheslav/Dropbox/Projects/Relanotes/relanotes-0.02/resources/icons/notelist/list41-2-3.png"
   inkscape:export-xdpi="90"
   inkscape:export-ydpi="90"><metadata
     id="metadata219"><rdf:RDF><cc:Work
         rdf:about=""><dc:format>image/svg+xml</dc:format><dc:type
           rdf:resource="http://purl.org/dc/dcmitype/StillImage" /><dc:title></dc:title></cc:Work></rdf:RDF></metadata><defs
     id="defs217" /><sodipodi:namedview
     pagecolor="#ffffff"
     bordercolor="#666666"
     borderopacity="1"
     objecttolerance="10"
     gridtolerance="10"
     guidetolerance="10"
     inkscape:pageopacity="0"
     inkscape:pageshadow="2"
     inkscape:window-width="1366"
     inkscape:window-height="749"
     id="namedview215"
     showgrid="false"
     inkscape:zoom="22.627417"
     inkscape:cx="11.400695"
     inkscape:cy="8.5900528"
     inkscape:window-x="0"
     inkscape:window-y="0"
     inkscape:window-maximized="1"
     inkscape:current-layer="svg2" /><g
     id="text"
     transform="matrix(0.35028789,0,0,0.35028789,-1.7005766,-0.80259799)" /><g
     id="_x31_"
     transform="matrix(0.35028789,0,0,0.35028789,-1.7005766,-0.80259799)" /><g
     id="_x32_"
     transform="matrix(0.35028789,0,0,0.35028789,-1.7005766,-0.80259799)" /><g
     id="_x33__1_"
     transform="matrix(0.35028789,0,0,0.35028789,-1.7005766,-0.80259799)" /><g
     id="_x34_"
     transform="matrix(0.35028789,0,0,0.35028789,-1.7005766,-0.80259799)" /><g
     id="_x35_"
     transform="matrix(0.35028789,0,0,0.35028789,-1.7005766,-0.80259799)" /><g
     id="_x36_"
     transform="matrix(0.35028789,0,0,0.35028789,-1.7005766,-0.80259799)" /><g
     id="_x37_"
     transform="matrix(0.35028789,0,0,0.35028789,-1.7005766,-0.80259799)" /><g
     id="_x38_"
     transform="matrix(0.35028789,0,0,0.35028789,-1.7005766,-0.80259799)" /><g
     id="_x39_"
     transform="matrix(0.35028789,0,0,0.35028789,-1.7005766,-0.80259799)" /><g
     id="_x31_0"
     transform="matrix(0.35028789,0,0,0.35028789,-1.7005766,-0.80259799)" /><g
     id="_x31_1"
     transform="matrix(0.35028789,0,0,0.35028789,-1.7005766,-0.80259799)" /><g
     id="_x31_2"
     transform="matrix(0.35028789,0,0,0.35028789,-1.7005766,-0.80259799)" /><g
     id="_x31_3"
     transform="matrix(0.35028789,0,0,0.35028789,-1.7005766,-0.80259799)" /><g
     id="_x31_4"
     transform="matrix(0.35028789,0,0,0.35028789,-1.7005766,-0.80259799)" /><g
     id="_x31_5"
     transform="matrix(0.35028789,0,0,0.35028789,-1.7005766,-0.80259799)" /><g
     id="_x31_6"
     transform="matrix(0.35028789,0,0,0.35028789,-1.7005766,-0.80259799)" /><g
     id="_x31_7"
     transform="matrix(0.35028789,0,0,0.35028789,-1.7005766,-0.80259799)" /><g
     id="_x31_8"
     transform="matrix(0.35028789,0,0,0.35028789,-1.7005766,-0.80259799)" /><g
     id="_x31_9"
     transform="matrix(0.35028789,0,0,0.35028789,-1.7005766,-0.80259799)" /><g
     id="_x32_0"
     transform="matrix(0.35028789,0,0,0.35028789,-1.7005766,-0.80259799)" /><g
     id="_x32_1"
     transform="matrix(0.35028789,0,0,0.35028789,-1.7005766,-0.80259799)" /><g
     id="_x32_2"
     transform="matrix(0.35028789,0,0,0.35028789,-1.7005766,-0.80259799)" /><g
     id="_x32_3"
     transform="matrix(0.35028789,0,0,0.35028789,-1.7005766,-0.80259799)" /><g
     id="_x32_4"
     transform="matrix(0.35028789,0,0,0.35028789,-1.7005766,-0.80259799)" /><g
     id="_x32_5"
     transform="matrix(0.35028789,0,0,0.35028789,-1.7005766,-0.80259799)" /><g
     id="_x32_6"
     transform="matrix(0.35028789,0,0,0.35028789,-1.7005766,-0.80259799)" /><g
     id="_x32_7"
     transform="matrix(0.35028789,0,0,0.35028789,-1.7005766,-0.80259799)" /><g
     id="_x32_8"
     transform="matrix(0.35028789,0,0,0.35028789,-1.7005766,-0.80259799)" /><g
     id="_x32_9"
     transform="matrix(0.35028789,0,0,0.35028789,-1.7005766,-0.80259799)" /><g
     id="_x33_0"
     transform="matrix(0.35028789,0,0,0.35028789,-1.7005766,-0.80259799)" /><g
     id="_x33_1"
     transform="matrix(0.35028789,0,0,0.35028789,-1.7005766,-0.80259799)" /><g
     id="_x33_2"
     transform="matrix(0.35028789,0,0,0.35028789,-1.7005766,-0.80259799)" /><g
     id="_x33_3"
     transform="matrix(0.35028789,0,0,0.35028789,-1.7005766,-0.80259799)" /><g
     id="_x33_4"
     transform="matrix(0.35028789,0,0,0.35028789,-1.7005766,-0.80259799)" /><g
     id="_x33_5"
     transform="matrix(0.35028789,0,0,0.35028789,-1.7005766,-0.80259799)" /><g
     id="_x33_6"
     transform="matrix(0.35028789,0,0,0.35028789,-1.7005766,-0.80259799)" /><g
     id="_x33_7"
     transform="matrix(0.35028789,0,0,0.35028789,-1.7005766,-0.80259799)" /><g
     id="_x33_8"
     transform="matrix(0.35028789,0,0,0.35028789,-1.7005766,-0.80259799)" /><g
     id="_x33_9"
     transform="matrix(0.35028789,0,0,0.35028789,-1.7005766,-0.80259799)" /><g
     id="_x34_0"
     transform="matrix(0.35028789,0,0,0.35028789,-1.7005766,-0.80259799)" /><g
     id="_x34_1"
     transform="matrix(0.35028789,0,0,0.35028789,-1.7005766,-0.80259799)" /><g
     id="_x34_2"
     transform="matrix(0.35028789,0,0,0.35028789,-1.7005766,-0.80259799)" /><g
     id="_x34_3"
     transform="matrix(0.35028789,0,0,0.35028789,-1.7005766,-0.80259799)" /><g
     id="_x34_4"
     transform="matrix(0.35028789,0,0,0.35028789,-1.7005766,-0.80259799)" /><g
     id="_x34_5"
     transform="matrix(0.35028789,0,0,0.35028789,-1.7005766,-0.80259799)" /><g
     id="_x34_6"
     transform="matrix(0.35028789,0,0,0.35028789,-1.7005766,-0.80259799)" /><g
     id="_x34_7"
     transform="matrix(0.35028789,0,0,0.35028789,-1.7005766,-0.80259799)" /><g
     id="_x34_8"
     transform="matrix(0.35028789,0,0,0.35028789,-1.7005766,-0.80259799)" /><g
     id="_x34_9"
     transform="matrix(0.35028789,0,0,0.35028789,-1.7005766,-0.80259799)" /><g
     id="_x35_0"
     transform="matrix(0.35028789,0,0,0.35028789,-1.7005766,-0.80259799)" /><g
     id="_x35_1"
     transform="matrix(0.35028789,0,0,0.35028789,-1.7005766,-0.80259799)" /><g
     id="_x35_2"
     transform="matrix(0.35028789,0,0,0.35028789,-1.7005766,-0.80259799)" /><g
     id="_x35_3"
     transform="matrix(0.35028789,0,0,0.35028789,-1.7005766,-0.80259799)" /><g
     id="_x35_4"
     transform="matrix(0.35028789,0,0,0.35028789,-1.1002282,-1.000196)"><g
       id="g59"><path
         id="path3223"
         d="m 34.338533,13.554533 c -6.718069,0 -6.107812,0 -12.825881,0 -1.687368,0 -1.687368,2.842654 0,2.842654 6.718069,0 6.107812,0 12.825881,0 1.688415,0 1.688415,-2.842654 0,-2.842654 z"
         inkscape:connector-curvature="0"
         style="fill:#d7d7d7;fill-opacity:1" /><path
         id="path3225"
         d="m 34.338533,24.063165 c -6.718069,0 -6.107812,0 -12.825881,0 -1.687368,0 -1.687368,2.842654 0,2.842654 6.718069,0 6.107812,0 12.825881,0 1.688415,0 1.688415,-2.842654 0,-2.842654 z"
         inkscape:connector-curvature="0"
         style="fill:#d7d7d7;fill-opacity:1" /><path
         id="path3227"
         d="m 34.338533,35.065282 c -6.718069,0 -6.107812,0 -12.825881,0 -1.687368,0 -1.687368,2.842654 0,2.842654 6.718069,0 6.107812,0 12.825881,0 1.688415,0 1.688415,-2.842654 0,-2.842654 z"
         inkscape:connector-curvature="0"
         style="fill:#d7d7d7;fill-opacity:1" /><path
         id="path3231"
         d="M 14.866043,12.708559 H 10.90452 c -0.14327,0 -0.260388,0.08755 -0.260388,0.195575 v 3.994497 c 0,0.106884 0.115981,0.194438 0.260388,0.194438 h 3.961523 c 0.14327,0 0.260387,-0.08755 0.260387,-0.194438 v -3.994497 c 0,-0.108021 -0.11598,-0.195575 -0.260387,-0.195575 z"
         inkscape:connector-curvature="0"
         style="fill:#d7d7d7;fill-opacity:1" /><path
         id="path3233"
         d="M 14.866043,23.336583 H 10.90452 c -0.14327,0 -0.260388,0.08755 -0.260388,0.195574 v 3.994498 c 0,0.106884 0.115981,0.194437 0.260388,0.194437 h 3.961523 c 0.14327,0 0.260387,-0.08755 0.260387,-0.194437 v -3.994498 c 0,-0.106884 -0.11598,-0.195574 -0.260387,-0.195574 z"
         inkscape:connector-curvature="0"
         style="fill:#d7d7d7;fill-opacity:1" /><path
         id="path3235"
         d="M 14.866043,34.294354 H 10.90452 c -0.14327,0 -0.260388,0.08755 -0.260388,0.195575 v 3.994497 c 0,0.106884 0.115981,0.194438 0.260388,0.194438 h 3.961523 c 0.14327,0 0.260387,-0.08755 0.260387,-0.194438 v -3.994497 c 0,-0.108021 -0.11598,-0.195575 -0.260387,-0.195575 z"
         inkscape:connector-curvature="0"
         style="fill:#d7d7d7;fill-opacity:1" /></g></g><g
     id="_x35_5"
     transform="matrix(0.35028789,0,0,0.35028789,-1.7005766,-0.80259799)" /><g
     id="_x35_6"
     transform="matrix(0.35028789,0,0,0.35028789,-1.7005766,-0.80259799)" /><g
     id="_x35_7"
     transform="matrix(0.35028789,0,0,0.35028789,-1.7005766,-0.80259799)" /><g
     id="_x35_8"
     transform="matrix(0.35028789,0,0,0.35028789,-1.7005766,-0.80259799)" /><g
     id="_x35_9"
     transform="matrix(0.35028789,0,0,0.35028789,-1.7005766,-0.80259799)" /><g
     id="_x36_0"
     transform="matrix(0.35028789,0,0,0.35028789,-1.7005766,-0.80259799)" /><g
     id="_x36_1"
     transform="matrix(0.35028789,0,0,0.35028789,-1.7005766,-0.80259799)" /><g
     id="_x36_2"
     transform="matrix(0.35028789,0,0,0.35028789,-1.7005766,-0.80259799)" /><g
     id="_x36_3"
     transform="matrix(0.35028789,0,0,0.35028789,-1.7005766,-0.80259799)" /><g
     id="_x36_4"
     transform="matrix(0.35028789,0,0,0.35028789,-1.7005766,-0.80259799)" /><g
     id="_x36_5"
     transform="matrix(0.35028789,0,0,0.35028789,-1.7005766,-0.80259799)" /><g
     id="_x36_6"
     transform="matrix(0.35028789,0,0,0.35028789,-1.7005766,-0.80259799)" /><g
     id="_x36_7"
     transform="matrix(0.35028789,0,0,0.35028789,-1.7005766,-0.80259799)" /><g
     id="_x36_8"
     transform="matrix(0.35028789,0,0,0.35028789,-1.7005766,-0.80259799)" /><g
     id="_x36_9"
     transform="matrix(0.35028789,0,0,0.35028789,-1.7005766,-0.80259799)" /><g
     id="_x37_0"
     transform="matrix(0.35028789,0,0,0.35028789,-1.7005766,-0.80259799)" /><g
     id="_x37_1"
     transform="matrix(0.35028789,0,0,0.35028789,-1.7005766,-0.80259799)" /><g
     id="_x37_2"
     transform="matrix(0.35028789,0,0,0.35028789,-1.7005766,-0.80259799)" /><g
     id="_x37_3"
     transform="matrix(0.35028789,0,0,0.35028789,-1.7005766,-0.80259799)" /><g
     id="_x37_4"
     transform="matrix(0.35028789,0,0,0.35028789,-1.7005766,-0.80259799)" /><g
     id="_x37_5"
     transform="matrix(0.35028789,0,0,0.35028789,-1.7005766,-0.80259799)" /><g
     id="_x37_6"
     transform="matrix(0.35028789,0,0,0.35028789,-1.7005766,-0.80259799)" /><g
     id="_x37_7"
     transform="matrix(0.35028789,0,0,0.35028789,-1.7005766,-0.80259799)" /><g
     id="_x37_8"
     transform="matrix(0.35028789,0,0,0.35028789,-1.7005766,-0.80259799)" /><g
     id="_x37_9"
     transform="matrix(0.35028789,0,0,0.35028789,-1.7005766,-0.80259799)" /><g
     id="_x38_0"
     transform="matrix(0.35028789,0,0,0.35028789,-1.7005766,-0.80259799)" /><g
     id="_x38_1"
     transform="matrix(0.35028789,0,0,0.35028789,-1.7005766,-0.80259799)" /><g
     id="_x38_2"
     transform="matrix(0.35028789,0,0,0.35028789,-1.7005766,-0.80259799)" /><g
     id="_x38_3"
     transform="matrix(0.35028789,0,0,0.35028789,-1.7005766,-0.80259799)" /><g
     id="_x38_4"
     transform="matrix(0.35028789,0,0,0.35028789,-1.7005766,-0.80259799)" /><g
     id="_x38_5"
     transform="matrix(0.35028789,0,0,0.35028789,-1.7005766,-0.80259799)" /><g
     id="_x38_6"
     transform="matrix(0.35028789,0,0,0.35028789,-1.7005766,-0.80259799)" /><g
     id="_x38_7"
     transform="matrix(0.35028789,0,0,0.35028789,-1.7005766,-0.80259799)" /><g
     id="_x38_8"
     transform="matrix(0.35028789,0,0,0.35028789,-1.7005766,-0.80259799)" /><g
     id="_x38_9"
     transform="matrix(0.35028789,0,0,0.35028789,-1.7005766,-0.80259799)" /><g
     id="_x39_0"
     transform="matrix(0.35028789,0,0,0.35028789,-1.7005766,-0.80259799)" /><g
     id="_x39_1"
     transform="matrix(0.35028789,0,0,0.35028789,-1.7005766,-0.80259799)" /><g
     id="_x39_2"
     transform="matrix(0.35028789,0,0,0.35028789,-1.7005766,-0.80259799)" /><g
     id="_x39_3"
     transform="matrix(0.35028789,0,0,0.35028789,-1.7005766,-0.80259799)" /><g
     id="_x39_4"
     transform="matrix(0.35028789,0,0,0.35028789,-1.7005766,-0.80259799)" /><g
     id="_x39_5"
     transform="matrix(0.35028789,0,0,0.35028789,-1.7005766,-0.80259799)" /><g
     id="_x39_6"
     transform="matrix(0.35028789,0,0,0.35028789,-1.7005766,-0.80259799)" /><g
     id="_x39_7"
     transform="matrix(0.35028789,0,0,0.35028789,-1.7005766,-0.80259799)" /><g
     id="_x39_8"
     transform="matrix(0.35028789,0,0,0.35028789,-1.7005766,-0.80259799)" /><g
     id="_x39_9"
     transform="matrix(0.35028789,0,0,0.35028789,-1.7005766,-0.80259799)" /><g
     id="_x31_00"
     transform="matrix(0.35028789,0,0,0.35028789,-1.7005766,-0.80259799)" /><g
     id="_x31_01"
     transform="matrix(0.35028789,0,0,0.35028789,-1.7005766,-0.80259799)" /><g
     id="_x31_02"
     transform="matrix(0.35028789,0,0,0.35028789,-1.7005766,-0.80259799)" /><g
     id="_x31_03"
     transform="matrix(0.35028789,0,0,0.35028789,-1.7005766,-0.80259799)" /><g
     id="_x31_04"
     transform="matrix(0.35028789,0,0,0.35028789,-1.7005766,-0.80259799)" /><g
     id="_x31_05"
     transform="matrix(0.35028789,0,0,0.35028789,-1.7005766,-0.80259799)" /><g
     id="_x31_06"
     transform="matrix(0.35028789,0,0,0.35028789,-1.7005766,-0.80259799)" /><g
     id="_x31_07"
     transform="matrix(0.35028789,0,0,0.35028789,-1.7005766,-0.80259799)" /><g
     id="_x31_08"
     transform="matrix(0.35028789,0,0,0.35028789,-1.7005766,-0.80259799)" /><g
     id="_x31_09"
     transform="matrix(0.35028789,0,0,0.35028789,-1.7005766,-0.80259799)" /><g
     id="_x31_10"
     transform="matrix(0.35028789,0,0,0.35028789,-1.7005766,-0.80259799)" /><g
     id="_x31_11"
     transform="matrix(0.35028789,0,0,0.35028789,-1.7005766,-0.80259799)" /><g
     id="_x31_12"
     transform="matrix(0.35028789,0,0,0.35028789,-1.7005766,-0.80259799)" /><g
     id="_x31_13"
     transform="matrix(0.35028789,0,0,0.35028789,-1.7005766,-0.80259799)" /><g
     id="_x31_14"
     transform="matrix(0.35028789,0,0,0.35028789,-1.7005766,-0.80259799)" /><g
     id="_x31_15"
     transform="matrix(0.35028789,0,0,0.35028789,-1.7005766,-0.80259799)" /><g
     id="_x31_16"
     transform="matrix(0.35028789,0,0,0.35028789,-1.7005766,-0.80259799)" /><g
     id="_x31_17"
     transform="matrix(0.35028789,0,0,0.35028789,-1.7005766,-0.80259799)" /><g
     id="_x31_18"
     transform="matrix(0.35028789,0,0,0.35028789,-1.7005766,-0.80259799)" /><g
     id="_x31_19"
     transform="matrix(0.35028789,0,0,0.35028789,-1.7005766,-0.80259799)" /><g
     id="_x31_20"
     transform="matrix(0.35028789,0,0,0.35028789,-1.7005766,-0.80259799)" /><g
     id="_x31_21"
     transform="matrix(0.35028789,0,0,0.35028789,-1.7005766,-0.80259799)" /><g
     id="_x31_22"
     transform="matrix(0.35028789,0,0,0.35028789,-1.7005766,-0.80259799)" /><g
     id="_x31_23"
     transform="matrix(0.35028789,0,0,0.35028789,-1.7005766,-0.80259799)" /><g
     id="_x31_24"
     transform="matrix(0.35028789,0,0,0.35028789,-1.7005766,-0.80259799)" /><g
     id="_x31_25"
     transform="matrix(0.35028789,0,0,0.35028789,-1.7005766,-0.80259799)" /><g
     id="_x31_26"
     transform="matrix(0.35028789,0,0,0.35028789,-1.7005766,-0.80259799)" /><g
     id="_x31_27"
     transform="matrix(0.35028789,0,0,0.35028789,-1.7005766,-0.80259799)" /><g
     id="_x31_28"
     transform="matrix(0.35028789,0,0,0.35028789,-1.7005766,-0.80259799)" /><g
     id="_x31_29"
     transform="matrix(0.35028789,0,0,0.35028789,-1.7005766,-0.80259799)" /><g
     id="_x31_30"
     transform="matrix(0.35028789,0,0,0.35028789,-1.7005766,-0.80259799)" /><g
     id="_x31_31"
     transform="matrix(0.35028789,0,0,0.35028789,-1.7005766,-0.80259799)" /><g
     id="_x31_32"
     transform="matrix(0.35028789,0,0,0.35028789,-1.7005766,-0.80259799)" /><g
     id="_x31_33"
     transform="matrix(0.35028789,0,0,0.35028789,-1.7005766,-0.80259799)" /><g
     id="_x31_34"
     transform="matrix(0.35028789,0,0,0.35028789,-1.7005766,-0.80259799)" /><g
     id="_x31_35"
     transform="matrix(0.35028789,0,0,0.35028789,-1.7005766,-0.80259799)" /><g
     id="_x31_36"
     transform="matrix(0.35028789,0,0,0.35028789,-1.7005766,-0.80259799)" /><g
     id="_x31_37"
     transform="matrix(0.35028789,0,0,0.35028789,-1.7005766,-0.80259799)" /><g
     id="_x31_38"
     transform="matrix(0.35028789,0,0,0.35028789,-1.7005766,-0.80259799)" /><g
     id="_x31_39"
     transform="matrix(0.35028789,0,0,0.35028789,-1.7005766,-0.80259799)" /><g
     id="_x31_40"
     transform="matrix(0.35028789,0,0,0.35028789,-1.7005766,-0.80259799)" /><g
     id="_x31_41"
     transform="matrix(0.35028789,0,0,0.35028789,-1.7005766,-0.80259799)" /><g
     id="_x31_42"
     transform="matrix(0.35028789,0,0,0.35028789,-1.7005766,-0.80259799)" /><g
     id="_x31_43"
     transform="matrix(0.35028789,0,0,0.35028789,-1.7005766,-0.80259799)" /><g
     id="_x31_44"
     transform="matrix(0.35028789,0,0,0.35028789,-1.7005766,-0.80259799)" /><g
     id="_x31_45"
     transform="matrix(0.35028789,0,0,0.35028789,-1.7005766,-0.80259799)" /><g
     id="_x31_46"
     transform="matrix(0.35028789,0,0,0.35028789,-1.7005766,-0.80259799)" /><g
     id="_x31_47"
     transform="matrix(0.35028789,0,0,0.35028789,-1.7005766,-0.80259799)" /><g
     id="_x31_48"
     transform="matrix(0.35028789,0,0,0.35028789,-1.7005766,-0.80259799)" /><g
     id="_x31_49"
     transform="matrix(0.35028789,0,0,0.35028789,-1.7005766,-0.80259799)" /><g
     id="_x31_50"
     transform="matrix(0.35028789,0,0,0.35028789,-1.7005766,-0.80259799)" /><g
     id="_x31_51"
     transform="matrix(0.35028789,0,0,0.35028789,-1.7005766,-0.80259799)" /><g
     id="_x31_52"
     transform="matrix(0.35028789,0,0,0.35028789,-1.7005766,-0.80259799)" /><g
     id="_x31_53"
     transform="matrix(0.35028789,0,0,0.35028789,-1.7005766,-0.80259799)" /><g
     id="_x31_54"
     transform="matrix(0.35028789,0,0,0.35028789,-1.7005766,-0.80259799)" /><g
     id="_x31_55"
     transform="matrix(0.35028789,0,0,0.35028789,-1.7005766,-0.80259799)" /><g
     id="_x31_56"
     transform="matrix(0.35028789,0,0,0.35028789,-1.7005766,-0.80259799)" /><g
     id="_x31_57"
     transform="matrix(0.35028789,0,0,0.35028789,-1.7005766,-0.80259799)" /><g
     id="_x31_58"
     transform="matrix(0.35028789,0,0,0.35028789,-1.7005766,-0.80259799)" /><g
     id="_x31_59"
     transform="matrix(0.35028789,0,0,0.35028789,-1.7005766,-0.80259799)" /><g
     id="_x31_60"
     transform="matrix(0.35028789,0,0,0.35028789,-1.7005766,-0.80259799)" /><g
     id="_x31_61"
     transform="matrix(0.35028789,0,0,0.35028789,-1.7005766,-0.80259799)" /><g
     id="_x31_62"
     transform="matrix(0.35028789,0,0,0.35028789,-1.7005766,-0.80259799)" /><g
     id="_x31_63"
     transform="matrix(0.35028789,0,0,0.35028789,-1.7005766,-0.80259799)" /><g
     id="_x31_64"
     transform="matrix(0.35028789,0,0,0.35028789,-1.7005766,-0.80259799)" /><g
     id="_x31_65"
     transform="matrix(0.35028789,0,0,0.35028789,-1.7005766,-0.80259799)" /><g
     id="_x31_66"
     transform="matrix(0.35028789,0,0,0.35028789,-1.7005766,-0.80259799)" /><g
     id="_x31_67"
     transform="matrix(0.35028789,0,0,0.35028789,-1.7005766,-0.80259799)" /><g
     id="_x31_68"
     transform="matrix(0.35028789,0,0,0.35028789,-1.7005766,-0.80259799)" /><g
     id="_x31_69"
     transform="matrix(0.35028789,0,0,0.35028789,-1.7005766,-0.80259799)" /><g
     id="_x31_70"
     transform="matrix(0.35028789,0,0,0.35028789,-1.7005766,-0.80259799)" /><g
     id="_x31_71"
     transform="matrix(0.35028789,0,0,0.35028789,-1.7005766,-0.80259799)" /><g
     id="_x31_72"
     transform="matrix(0.35028789,0,0,0.35028789,-1.7005766,-0.80259799)" /><g
     id="_x31_73"
     transform="matrix(0.35028789,0,0,0.35028789,-1.7005766,-0.80259799)" /><g
     id="_x31_74"
     transform="matrix(0.35028789,0,0,0.35028789,-1.7005766,-0.80259799)" /><g
     id="_x31_75"
     transform="matrix(0.35028789,0,0,0.35028789,-1.7005766,-0.80259799)" /><g
     id="_x31_76"
     transform="matrix(0.35028789,0,0,0.35028789,-1.7005766,-0.80259799)" /><g
     id="_x31_77"
     transform="matrix(0.35028789,0,0,0.35028789,-1.7005766,-0.80259799)" /><g
     id="_x31_78"
     transform="matrix(0.35028789,0,0,0.35028789,-1.7005766,-0.80259799)" /><g
     id="_x31_79"
     transform="matrix(0.35028789,0,0,0.35028789,-1.7005766,-0.80259799)" /><g
     id="_x31_80"
     transform="matrix(0.35028789,0,0,0.35028789,-1.7005766,-0.80259799)" /><g
     id="_x31_81"
     transform="matrix(0.35028789,0,0,0.35028789,-1.7005766,-0.80259799)" /><g
     id="_x31_82"
     transform="matrix(0.35028789,0,0,0.35028789,-1.7005766,-0.80259799)" /><g
     id="_x31_83"
     transform="matrix(0.35028789,0,0,0.35028789,-1.7005766,-0.80259799)" /><g
     id="_x31_84"
     transform="matrix(0.35028789,0,0,0.35028789,-1.7005766,-0.80259799)" /><g
     id="_x31_85"
     transform="matrix(0.35028789,0,0,0.35028789,-1.7005766,-0.80259799)" /><g
     id="_x31_86"
     transform="matrix(0.35028789,0,0,0.35028789,-1.7005766,-0.80259799)" /><g
     id="_x31_87"
     transform="matrix(0.35028789,0,0,0.35028789,-1.7005766,-0.80259799)" /><g
     id="_x31_88"
     transform="matrix(0.35028789,0,0,0.35028789,-1.7005766,-0.80259799)" /><g
     id="_x31_89"
     transform="matrix(0.35028789,0,0,0.35028789,-1.7005766,-0.80259799)" /><g
     id="_x31_90"
     transform="matrix(0.35028789,0,0,0.35028789,-1.7005766,-0.80259799)" /><path
     d="m 13.989429,1.6092132 c 0,-0.88060704 -0.746642,-1.59708366 -1.665584,-1.59708366 l -10.6543125,0 c -0.91894127,0 -1.66558216,0.71647662 -1.66558216,1.59708366 l 0,12.7815088 c 0,0.880605 0.74664089,1.597082 1.66558216,1.597082 l 10.6543125,0 c 0.918942,0 1.665584,-0.716477 1.665584,-1.597082 -0.0026,-13.66334681 0,-7.7385438 0,-12.7815088 z M 13.323574,14.390722 c 0,0.528121 -0.448742,0.958128 -0.999729,0.958128 l -10.6543125,0 c -0.5509866,0 -0.99972812,-0.430007 -0.99972812,-0.958128 l 0,-12.7815088 c 0,-0.528122 0.44874152,-0.95812955 0.99972812,-0.95812955 l 10.6543125,0 c 0.550987,0 0.999729,0.43000755 0.999729,0.95812955 z"
     id="path5"
     inkscape:connector-curvature="0"
     sodipodi:nodetypes="cssssssccsssssssss"
     style="fill:#d7d7d7;fill-opacity:1" /></svg>