<?xml version="1.0" encoding="UTF-8" standalone="no"?>
<!-- Generator: Adobe Illustrator 16.0.4, SVG Export Plug-In . SVG Version: 6.00 Build 0)  -->

<svg
   xmlns:dc="http://purl.org/dc/elements/1.1/"
   xmlns:cc="http://creativecommons.org/ns#"
   xmlns:rdf="http://www.w3.org/1999/02/22-rdf-syntax-ns#"
   xmlns:svg="http://www.w3.org/2000/svg"
   xmlns="http://www.w3.org/2000/svg"
   xmlns:sodipodi="http://sodipodi.sourceforge.net/DTD/sodipodi-0.dtd"
   xmlns:inkscape="http://www.inkscape.org/namespaces/inkscape"
   version="1.1"
   id="Capa_1"
   x="0px"
   y="0px"
   width="9"
   height="11"
   viewBox="0 0 9 11"
   enable-background="new 0 0 216 146"
   xml:space="preserve"
   inkscape:version="0.48.4 r9939"
   sodipodi:docname="text59-green.svg"
   inkscape:export-filename="/home/vyacheslav/Dropbox/Projects/Relanotes/relanotes-0.02/resources/icons/notelist/text59-green.png"
   inkscape:export-xdpi="90"
   inkscape:export-ydpi="90"><metadata
     id="metadata15"><rdf:RDF><cc:Work
         rdf:about=""><dc:format>image/svg+xml</dc:format><dc:type
           rdf:resource="http://purl.org/dc/dcmitype/StillImage" /><dc:title></dc:title></cc:Work></rdf:RDF></metadata><defs
     id="defs13" /><sodipodi:namedview
     pagecolor="#ffffff"
     bordercolor="#666666"
     borderopacity="1"
     objecttolerance="10"
     gridtolerance="10"
     guidetolerance="10"
     inkscape:pageopacity="0"
     inkscape:pageshadow="2"
     inkscape:window-width="1366"
     inkscape:window-height="749"
     id="namedview11"
     showgrid="false"
     inkscape:zoom="8"
     inkscape:cx="10.279058"
     inkscape:cy="0.011419536"
     inkscape:window-x="0"
     inkscape:window-y="0"
     inkscape:window-maximized="1"
     inkscape:current-layer="g3" /><g
     id="g3"
     inkscape:export-xdpi="8.6301966"
     inkscape:export-ydpi="8.6301966"
     style="fill:#008033;fill-opacity:1"
     transform="matrix(0.09235797,0,0,0.09235797,-2.6679659,-3.67158)"><g
       id="g3753"
       transform="matrix(0.93241508,0,0,0.93241508,-23.090138,31.238394)"><path
         inkscape:connector-curvature="0"
         style="fill:#008066;fill-opacity:1"
         id="path5"
         d="m 158.514,47.58 c -1.086,-2.607 -2.389,-4.67 -3.91,-6.191 l -25.42,-25.42 c -1.521,-1.52 -3.584,-2.824 -6.191,-3.911 -2.607,-1.086 -4.997,-1.629 -7.169,-1.629 H 63.679 c -2.172,0 -4.019,0.76 -5.54,2.281 -1.521,1.52 -2.281,3.367 -2.281,5.54 v 109.5 c 0,2.173 0.76,4.02 2.281,5.54 1.521,1.52 3.368,2.281 5.54,2.281 h 88.644 c 2.172,0 4.018,-0.761 5.538,-2.281 1.521,-1.521 2.281,-3.367 2.281,-5.54 v -73 c 0.001,-2.173 -0.542,-4.563 -1.628,-7.17 z M 118.43,21.509 c 1.574,0.543 2.688,1.141 3.34,1.792 l 25.502,25.502 c 0.65,0.652 1.248,1.765 1.791,3.34 H 118.43 V 21.509 z m 31.285,103.634 H 66.286 V 20.858 H 108 v 33.893 c 0,2.173 0.76,4.019 2.281,5.54 1.521,1.52 3.367,2.281 5.541,2.281 h 33.893 v 62.571 z" /><path
         inkscape:connector-curvature="0"
         style="fill:#008066;fill-opacity:1"
         id="path7"
         d="M 136.68,93.857 H 79.322 c -0.76,0 -1.385,0.244 -1.874,0.732 -0.488,0.489 -0.733,1.114 -0.733,1.874 v 5.215 c 0,0.761 0.244,1.386 0.733,1.874 0.489,0.488 1.114,0.732 1.874,0.732 h 57.358 c 0.76,0 1.385,-0.244 1.873,-0.732 0.488,-0.488 0.733,-1.113 0.733,-1.874 v -5.215 c 0,-0.76 -0.245,-1.385 -0.733,-1.874 -0.489,-0.487 -1.114,-0.732 -1.873,-0.732 z" /><path
         inkscape:connector-curvature="0"
         style="fill:#008066;fill-opacity:1"
         id="path9"
         d="m 77.448,73.732 c -0.488,0.488 -0.733,1.113 -0.733,1.875 v 5.214 c 0,0.761 0.244,1.385 0.733,1.874 0.489,0.488 1.114,0.732 1.874,0.732 h 57.358 c 0.76,0 1.385,-0.244 1.873,-0.732 0.488,-0.489 0.733,-1.113 0.733,-1.874 v -5.214 c 0,-0.76 -0.245,-1.385 -0.733,-1.875 C 138.064,73.244 137.439,73 136.68,73 H 79.322 c -0.76,0 -1.385,0.244 -1.874,0.732 z" /></g></g></svg>